0
SECTION
2
HEADER
9
$ACADVER
1
AC1009
9
$INSUNITS
70
4
9
$MEASUREMENT
70
1
0
ENDSEC
0
SECTION
2
TABLES
0
TABLE
2
LTYPE
70
2
0
LTYPE
2
CONTINUOUS
70
0
3
Solid line
72
65
73
0
40
0.0
0
LTYPE
2
CENTER
70
0
3
Center ____ _ ____ _
72
65
73
4
40
2.0
49
1.25
49
-0.25
49
0.25
49
-0.25
0
ENDTAB
0
TABLE
2
LAYER
70
5
0
LAYER
2
GEAR_1
70
0
62
7
6
CONTINUOUS
0
LAYER
2
GEAR_2
70
0
62
4
6
CONTINUOUS
0
LAYER
2
BORE
70
0
62
1
6
CONTINUOUS
0
LAYER
2
CENTER_LINE
70
0
62
2
6
CENTER
0
LAYER
2
BASE_CIRCLE
70
0
62
5
6
CENTER
0
ENDTAB
0
ENDSEC
0
SECTION
2
ENTITIES
0
POLYLINE
8
GEAR_1
66
1
70
1
0
VERTEX
8
GEAR_1
10
21.430627
20
1.725757
0
VERTEX
8
GEAR_1
10
21.692933
20
1.746880
0
VERTEX
8
GEAR_1
10
21.955240
20
1.768003
0
VERTEX
8
GEAR_1
10
22.217547
20
1.789126
0
VERTEX
8
GEAR_1
10
22.479853
20
1.810249
0
VERTEX
8
GEAR_1
10
22.566163
20
1.812150
0
VERTEX
8
GEAR_1
10
22.652807
20
1.809864
0
VERTEX
8
GEAR_1
10
22.739665
20
1.804821
0
VERTEX
8
GEAR_1
10
22.826695
20
1.797527
0
VERTEX
8
GEAR_1
10
22.913870
20
1.788269
0
VERTEX
8
GEAR_1
10
23.001170
20
1.777239
0
VERTEX
8
GEAR_1
10
23.088582
20
1.764576
0
VERTEX
8
GEAR_1
10
23.176093
20
1.750387
0
VERTEX
8
GEAR_1
10
23.263693
20
1.734758
0
VERTEX
8
GEAR_1
10
23.351372
20
1.717757
0
VERTEX
8
GEAR_1
10
23.439124
20
1.699445
0
VERTEX
8
GEAR_1
10
23.526939
20
1.679868
0
VERTEX
8
GEAR_1
10
23.614813
20
1.659072
0
VERTEX
8
GEAR_1
10
23.702737
20
1.637092
0
VERTEX
8
GEAR_1
10
23.790707
20
1.613962
0
VERTEX
8
GEAR_1
10
23.878715
20
1.589711
0
VERTEX
8
GEAR_1
10
23.966758
20
1.564364
0
VERTEX
8
GEAR_1
10
24.054828
20
1.537946
0
VERTEX
8
GEAR_1
10
24.142922
20
1.510478
0
VERTEX
8
GEAR_1
10
24.231035
20
1.481979
0
VERTEX
8
GEAR_1
10
24.319160
20
1.452467
0
VERTEX
8
GEAR_1
10
24.407294
20
1.421959
0
VERTEX
8
GEAR_1
10
24.495432
20
1.390468
0
VERTEX
8
GEAR_1
10
24.583569
20
1.358010
0
VERTEX
8
GEAR_1
10
24.671701
20
1.324597
0
VERTEX
8
GEAR_1
10
24.759823
20
1.290242
0
VERTEX
8
GEAR_1
10
24.847932
20
1.254954
0
VERTEX
8
GEAR_1
10
24.936022
20
1.218745
0
VERTEX
8
GEAR_1
10
25.024089
20
1.181625
0
VERTEX
8
GEAR_1
10
25.112129
20
1.143603
0
VERTEX
8
GEAR_1
10
25.200139
20
1.104688
0
VERTEX
8
GEAR_1
10
25.288113
20
1.064887
0
VERTEX
8
GEAR_1
10
25.376048
20
1.024208
0
VERTEX
8
GEAR_1
10
25.463940
20
0.982660
0
VERTEX
8
GEAR_1
10
25.551784
20
0.940248
0
VERTEX
8
GEAR_1
10
25.639577
20
0.896980
0
VERTEX
8
GEAR_1
10
25.727314
20
0.852861
0
VERTEX
8
GEAR_1
10
25.814992
20
0.807897
0
VERTEX
8
GEAR_1
10
25.902607
20
0.762095
0
VERTEX
8
GEAR_1
10
25.990154
20
0.715460
0
VERTEX
8
GEAR_1
10
25.994462
20
0.536625
0
VERTEX
8
GEAR_1
10
25.997538
20
0.357764
0
VERTEX
8
GEAR_1
10
25.999385
20
0.178886
0
VERTEX
8
GEAR_1
10
26.000000
20
0.000000
0
VERTEX
8
GEAR_1
10
25.999385
20
-0.178886
0
VERTEX
8
GEAR_1
10
25.997538
20
-0.357764
0
VERTEX
8
GEAR_1
10
25.994462
20
-0.536625
0
VERTEX
8
GEAR_1
10
25.990154
20
-0.715460
0
VERTEX
8
GEAR_1
10
25.902607
20
-0.762095
0
VERTEX
8
GEAR_1
10
25.814992
20
-0.807897
0
VERTEX
8
GEAR_1
10
25.727314
20
-0.852861
0
VERTEX
8
GEAR_1
10
25.639577
20
-0.896980
0
VERTEX
8
GEAR_1
10
25.551784
20
-0.940248
0
VERTEX
8
GEAR_1
10
25.463940
20
-0.982660
0
VERTEX
8
GEAR_1
10
25.376048
20
-1.024208
0
VERTEX
8
GEAR_1
10
25.288113
20
-1.064887
0
VERTEX
8
GEAR_1
10
25.200139
20
-1.104688
0
VERTEX
8
GEAR_1
10
25.112129
20
-1.143603
0
VERTEX
8
GEAR_1
10
25.024089
20
-1.181625
0
VERTEX
8
GEAR_1
10
24.936022
20
-1.218745
0
VERTEX
8
GEAR_1
10
24.847932
20
-1.254954
0
VERTEX
8
GEAR_1
10
24.759823
20
-1.290242
0
VERTEX
8
GEAR_1
10
24.671701
20
-1.324597
0
VERTEX
8
GEAR_1
10
24.583569
20
-1.358010
0
VERTEX
8
GEAR_1
10
24.495432
20
-1.390468
0
VERTEX
8
GEAR_1
10
24.407294
20
-1.421959
0
VERTEX
8
GEAR_1
10
24.319160
20
-1.452467
0
VERTEX
8
GEAR_1
10
24.231035
20
-1.481979
0
VERTEX
8
GEAR_1
10
24.142922
20
-1.510478
0
VERTEX
8
GEAR_1
10
24.054828
20
-1.537946
0
VERTEX
8
GEAR_1
10
23.966758
20
-1.564364
0
VERTEX
8
GEAR_1
10
23.878715
20
-1.589711
0
VERTEX
8
GEAR_1
10
23.790707
20
-1.613962
0
VERTEX
8
GEAR_1
10
23.702737
20
-1.637092
0
VERTEX
8
GEAR_1
10
23.614813
20
-1.659072
0
VERTEX
8
GEAR_1
10
23.526939
20
-1.679868
0
VERTEX
8
GEAR_1
10
23.439124
20
-1.699445
0
VERTEX
8
GEAR_1
10
23.351372
20
-1.717757
0
VERTEX
8
GEAR_1
10
23.263693
20
-1.734758
0
VERTEX
8
GEAR_1
10
23.176093
20
-1.750387
0
VERTEX
8
GEAR_1
10
23.088582
20
-1.764576
0
VERTEX
8
GEAR_1
10
23.001170
20
-1.777239
0
VERTEX
8
GEAR_1
10
22.913870
20
-1.788269
0
VERTEX
8
GEAR_1
10
22.826695
20
-1.797527
0
VERTEX
8
GEAR_1
10
22.739665
20
-1.804821
0
VERTEX
8
GEAR_1
10
22.652807
20
-1.809864
0
VERTEX
8
GEAR_1
10
22.566163
20
-1.812150
0
VERTEX
8
GEAR_1
10
22.479853
20
-1.810249
0
VERTEX
8
GEAR_1
10
22.217547
20
-1.789126
0
VERTEX
8
GEAR_1
10
21.955240
20
-1.768003
0
VERTEX
8
GEAR_1
10
21.692933
20
-1.746880
0
VERTEX
8
GEAR_1
10
21.430627
20
-1.725757
0
VERTEX
8
GEAR_1
10
21.484394
20
-0.819026
0
VERTEX
8
GEAR_1
10
21.499815
20
0.089168
0
VERTEX
8
GEAR_1
10
21.476862
20
0.997202
0
VERTEX
8
GEAR_1
10
21.415575
20
1.903456
0
VERTEX
8
GEAR_1
10
21.316065
20
2.806313
0
VERTEX
8
GEAR_1
10
21.178508
20
3.704161
0
VERTEX
8
GEAR_1
10
21.003150
20
4.595398
0
VERTEX
8
GEAR_1
10
20.790305
20
5.478432
0
VERTEX
8
GEAR_1
10
20.540352
20
6.351689
0
VERTEX
8
GEAR_1
10
20.253737
20
7.213608
0
VERTEX
8
GEAR_1
10
20.501639
20
7.301901
0
VERTEX
8
GEAR_1
10
20.749540
20
7.390194
0
VERTEX
8
GEAR_1
10
20.997442
20
7.478487
0
VERTEX
8
GEAR_1
10
21.245344
20
7.566781
0
VERTEX
8
GEAR_1
10
21.328221
20
7.590955
0
VERTEX
8
GEAR_1
10
21.412504
20
7.611172
0
VERTEX
8
GEAR_1
10
21.497708
20
7.628782
0
VERTEX
8
GEAR_1
10
21.583660
20
7.644262
0
VERTEX
8
GEAR_1
10
21.670261
20
7.657881
0
VERTEX
8
GEAR_1
10
21.757441
20
7.669822
0
VERTEX
8
GEAR_1
10
21.845152
20
7.680214
0
VERTEX
8
GEAR_1
10
21.933353
20
7.689158
0
VERTEX
8
GEAR_1
10
22.022013
20
7.696734
0
VERTEX
8
GEAR_1
10
22.111105
20
7.703006
0
VERTEX
8
GEAR_1
10
22.200606
20
7.708029
0
VERTEX
8
GEAR_1
10
22.290496
20
7.711848
0
VERTEX
8
GEAR_1
10
22.380758
20
7.714504
0
VERTEX
8
GEAR_1
10
22.471375
20
7.716029
0
VERTEX
8
GEAR_1
10
22.562334
20
7.716455
0
VERTEX
8
GEAR_1
10
22.653620
20
7.715809
0
VERTEX
8
GEAR_1
10
22.745223
20
7.714113
0
VERTEX
8
GEAR_1
10
22.837130
20
7.711390
0
VERTEX
8
GEAR_1
10
22.929332
20
7.707658
0
VERTEX
8
GEAR_1
10
23.021818
20
7.702935
0
VERTEX
8
GEAR_1
10
23.114579
20
7.697237
0
VERTEX
8
GEAR_1
10
23.207606
20
7.690579
0
VERTEX
8
GEAR_1
10
23.300891
20
7.682974
0
VERTEX
8
GEAR_1
10
23.394425
20
7.674433
0
VERTEX
8
GEAR_1
10
23.488202
20
7.664969
0
VERTEX
8
GEAR_1
10
23.582214
20
7.654591
0
VERTEX
8
GEAR_1
10
23.676453
20
7.643311
0
VERTEX
8
GEAR_1
10
23.770913
20
7.631135
0
VERTEX
8
GEAR_1
10
23.865587
20
7.618073
0
VERTEX
8
GEAR_1
10
23.960468
20
7.604133
0
VERTEX
8
GEAR_1
10
24.055551
20
7.589322
0
VERTEX
8
GEAR_1
10
24.150829
20
7.573647
0
VERTEX
8
GEAR_1
10
24.246296
20
7.557114
0
VERTEX
8
GEAR_1
10
24.341946
20
7.539729
0
VERTEX
8
GEAR_1
10
24.437774
20
7.521498
0
VERTEX
8
GEAR_1
10
24.533774
20
7.502427
0
VERTEX
8
GEAR_1
10
24.629941
20
7.482519
0
VERTEX
8
GEAR_1
10
24.726269
20
7.461781
0
VERTEX
8
GEAR_1
10
24.822752
20
7.440216
0
VERTEX
8
GEAR_1
10
24.919386
20
7.417828
0
VERTEX
8
GEAR_1
10
24.969833
20
7.246201
0
VERTEX
8
GEAR_1
10
25.019098
20
7.074231
0
VERTEX
8
GEAR_1
10
25.067178
20
6.901927
0
VERTEX
8
GEAR_1
10
25.114071
20
6.729295
0
VERTEX
8
GEAR_1
10
25.159776
20
6.556345
0
VERTEX
8
GEAR_1
10
25.204290
20
6.383085
0
VERTEX
8
GEAR_1
10
25.247610
20
6.209522
0
VERTEX
8
GEAR_1
10
25.289736
20
6.035666
0
VERTEX
8
GEAR_1
10
25.217242
20
5.967960
0
VERTEX
8
GEAR_1
10
25.144467
20
5.901043
0
VERTEX
8
GEAR_1
10
25.071414
20
5.834919
0
VERTEX
8
GEAR_1
10
24.998085
20
5.769595
0
VERTEX
8
GEAR_1
10
24.924482
20
5.705079
0
VERTEX
8
GEAR_1
10
24.850608
20
5.641376
0
VERTEX
8
GEAR_1
10
24.776465
20
5.578495
0
VERTEX
8
GEAR_1
10
24.702055
20
5.516444
0
VERTEX
8
GEAR_1
10
24.627379
20
5.455230
0
VERTEX
8
GEAR_1
10
24.552441
20
5.394861
0
VERTEX
8
GEAR_1
10
24.477241
20
5.335348
0
VERTEX
8
GEAR_1
10
24.401782
20
5.276700
0
VERTEX
8
GEAR_1
10
24.326065
20
5.218925
0
VERTEX
8
GEAR_1
10
24.250092
20
5.162036
0
VERTEX
8
GEAR_1
10
24.173864
20
5.106043
0
VERTEX
8
GEAR_1
10
24.097383
20
5.050959
0
VERTEX
8
GEAR_1
10
24.020650
20
4.996795
0
VERTEX
8
GEAR_1
10
23.943666
20
4.943566
0
VERTEX
8
GEAR_1
10
23.866431
20
4.891286
0
VERTEX
8
GEAR_1
10
23.788947
20
4.839971
0
VERTEX
8
GEAR_1
10
23.711213
20
4.789638
0
VERTEX
8
GEAR_1
10
23.633230
20
4.740306
0
VERTEX
8
GEAR_1
10
23.554997
20
4.691994
0
VERTEX
8
GEAR_1
10
23.476515
20
4.644724
0
VERTEX
8
GEAR_1
10
23.397782
20
4.598520
0
VERTEX
8
GEAR_1
10
23.318797
20
4.553410
0
VERTEX
8
GEAR_1
10
23.239557
20
4.509423
0
VERTEX
8
GEAR_1
10
23.160060
20
4.466592
0
VERTEX
8
GEAR_1
10
23.080303
20
4.424954
0
VERTEX
8
GEAR_1
10
23.000282
20
4.384554
0
VERTEX
8
GEAR_1
10
22.919990
20
4.345439
0
VERTEX
8
GEAR_1
10
22.839420
20
4.307670
0
VERTEX
8
GEAR_1
10
22.758563
20
4.271316
0
VERTEX
8
GEAR_1
10
22.677408
20
4.236460
0
VERTEX
8
GEAR_1
10
22.595937
20
4.203211
0
VERTEX
8
GEAR_1
10
22.514129
20
4.171705
0
VERTEX
8
GEAR_1
10
22.431952
20
4.142135
0
VERTEX
8
GEAR_1
10
22.349358
20
4.114784
0
VERTEX
8
GEAR_1
10
22.266258
20
4.090151
0
VERTEX
8
GEAR_1
10
22.182398
20
4.069648
0
VERTEX
8
GEAR_1
10
21.923562
20
4.022161
0
VERTEX
8
GEAR_1
10
21.664726
20
3.974674
0
VERTEX
8
GEAR_1
10
21.405890
20
3.927187
0
VERTEX
8
GEAR_1
10
21.147055
20
3.879701
0
VERTEX
8
GEAR_1
10
20.964311
20
4.769452
0
VERTEX
8
GEAR_1
10
20.744148
20
5.650691
0
VERTEX
8
GEAR_1
10
20.486961
20
6.521844
0
VERTEX
8
GEAR_1
10
20.193206
20
7.381356
0
VERTEX
8
GEAR_1
10
19.863410
20
8.227694
0
VERTEX
8
GEAR_1
10
19.498160
20
9.059346
0
VERTEX
8
GEAR_1
10
19.098109
20
9.874829
0
VERTEX
8
GEAR_1
10
18.663970
20
10.672686
0
VERTEX
8
GEAR_1
10
18.196518
20
11.451494
0
VERTEX
8
GEAR_1
10
17.696588
20
12.209863
0
VERTEX
8
GEAR_1
10
17.913191
20
12.359309
0
VERTEX
8
GEAR_1
10
18.129794
20
12.508756
0
VERTEX
8
GEAR_1
10
18.346397
20
12.658202
0
VERTEX
8
GEAR_1
10
18.562999
20
12.807648
0
VERTEX
8
GEAR_1
10
18.636796
20
12.852449
0
VERTEX
8
GEAR_1
10
18.712974
20
12.893791
0
VERTEX
8
GEAR_1
10
18.790717
20
12.932854
0
VERTEX
8
GEAR_1
10
18.869734
20
12.970052
0
VERTEX
8
GEAR_1
10
18.949859
20
13.005621
0
VERTEX
8
GEAR_1
10
19.030979
20
13.039719
0
VERTEX
8
GEAR_1
10
19.113011
20
13.072458
0
VERTEX
8
GEAR_1
10
19.195892
20
13.103926
0
VERTEX
8
GEAR_1
10
19.279570
20
13.134191
0
VERTEX
8
GEAR_1
10
19.364003
20
13.163308
0
VERTEX
8
GEAR_1
10
19.449154
20
13.191324
0
VERTEX
8
GEAR_1
10
19.534993
20
13.218278
0
VERTEX
8
GEAR_1
10
19.621492
20
13.244205
0
VERTEX
8
GEAR_1
10
19.708626
20
13.269132
0
VERTEX
8
GEAR_1
10
19.796375
20
13.293085
0
VERTEX
8
GEAR_1
10
19.884719
20
13.316087
0
VERTEX
8
GEAR_1
10
19.973639
20
13.338158
0
VERTEX
8
GEAR_1
10
20.063119
20
13.359315
0
VERTEX
8
GEAR_1
10
20.153145
20
13.379574
0
VERTEX
8
GEAR_1
10
20.243702
20
13.398949
0
VERTEX
8
GEAR_1
10
20.334777
20
13.417454
0
VERTEX
8
GEAR_1
10
20.426357
20
13.435099
0
VERTEX
8
GEAR_1
10
20.518432
20
13.451897
0
VERTEX
8
GEAR_1
10
20.610990
20
13.467856
0
VERTEX
8
GEAR_1
10
20.704021
20
13.482985
0
VERTEX
8
GEAR_1
10
20.797515
20
13.497294
0
VERTEX
8
GEAR_1
10
20.891463
20
13.510788
0
VERTEX
8
GEAR_1
10
20.985855
20
13.523475
0
VERTEX
8
GEAR_1
10
21.080684
20
13.535362
0
VERTEX
8
GEAR_1
10
21.175940
20
13.546454
0
VERTEX
8
GEAR_1
10
21.271617
20
13.556757
0
VERTEX
8
GEAR_1
10
21.367705
20
13.566276
0
VERTEX
8
GEAR_1
10
21.464198
20
13.575015
0
VERTEX
8
GEAR_1
10
21.561089
20
13.582978
0
VERTEX
8
GEAR_1
10
21.658370
20
13.590171
0
VERTEX
8
GEAR_1
10
21.756035
20
13.596596
0
VERTEX
8
GEAR_1
10
21.854078
20
13.602256
0
VERTEX
8
GEAR_1
10
21.952491
20
13.607156
0
VERTEX
8
GEAR_1
10
22.051268
20
13.611297
0
VERTEX
8
GEAR_1
10
22.150404
20
13.614684
0
VERTEX
8
GEAR_1
10
22.243552
20
13.461961
0
VERTEX
8
GEAR_1
10
22.335647
20
13.308602
0
VERTEX
8
GEAR_1
10
22.426684
20
13.154612
0
VERTEX
8
GEAR_1
10
22.516660
20
13.000000
0
VERTEX
8
GEAR_1
10
22.605571
20
12.844772
0
VERTEX
8
GEAR_1
10
22.693411
20
12.688937
0
VERTEX
8
GEAR_1
10
22.780176
20
12.532500
0
VERTEX
8
GEAR_1
10
22.865864
20
12.375470
0
VERTEX
8
GEAR_1
10
22.813363
20
12.291310
0
VERTEX
8
GEAR_1
10
22.760388
20
12.207837
0
VERTEX
8
GEAR_1
10
22.706938
20
12.125058
0
VERTEX
8
GEAR_1
10
22.653015
20
12.042981
0
VERTEX
8
GEAR_1
10
22.598618
20
11.961613
0
VERTEX
8
GEAR_1
10
22.543749
20
11.880962
0
VERTEX
8
GEAR_1
10
22.488407
20
11.801034
0
VERTEX
8
GEAR_1
10
22.432592
20
11.721838
0
VERTEX
8
GEAR_1
10
22.376304
20
11.643382
0
VERTEX
8
GEAR_1
10
22.319544
20
11.565675
0
VERTEX
8
GEAR_1
10
22.262309
20
11.488727
0
VERTEX
8
GEAR_1
10
22.204601
20
11.412546
0
VERTEX
8
GEAR_1
10
22.146417
20
11.337144
0
VERTEX
8
GEAR_1
10
22.087757
20
11.262530
0
VERTEX
8
GEAR_1
10
22.028619
20
11.188716
0
VERTEX
8
GEAR_1
10
21.969000
20
11.115713
0
VERTEX
8
GEAR_1
10
21.908900
20
11.043535
0
VERTEX
8
GEAR_1
10
21.848316
20
10.972195
0
VERTEX
8
GEAR_1
10
21.787244
20
10.901706
0
VERTEX
8
GEAR_1
10
21.725681
20
10.832086
0
VERTEX
8
GEAR_1
10
21.663623
20
10.763349
0
VERTEX
8
GEAR_1
10
21.601066
20
10.695514
0
VERTEX
8
GEAR_1
10
21.538003
20
10.628600
0
VERTEX
8
GEAR_1
10
21.474429
20
10.562628
0
VERTEX
8
GEAR_1
10
21.410337
20
10.497621
0
VERTEX
8
GEAR_1
10
21.345719
20
10.433605
0
VERTEX
8
GEAR_1
10
21.280564
20
10.370608
0
VERTEX
8
GEAR_1
10
21.214861
20
10.308661
0
VERTEX
8
GEAR_1
10
21.148599
20
10.247800
0
VERTEX
8
GEAR_1
10
21.081760
20
10.188064
0
VERTEX
8
GEAR_1
10
21.014328
20
10.129502
0
VERTEX
8
GEAR_1
10
20.946279
20
10.072167
0
VERTEX
8
GEAR_1
10
20.877586
20
10.016124
0
VERTEX
8
GEAR_1
10
20.808217
20
9.961451
0
VERTEX
8
GEAR_1
10
20.738128
20
9.908249
0
VERTEX
8
GEAR_1
10
20.667262
20
9.856643
0
VERTEX
8
GEAR_1
10
20.595539
20
9.806811
0
VERTEX
8
GEAR_1
10
20.522838
20
9.759015
0
VERTEX
8
GEAR_1
10
20.448945
20
9.713714
0
VERTEX
8
GEAR_1
10
20.373248
20
9.672205
0
VERTEX
8
GEAR_1
10
20.135523
20
9.559345
0
VERTEX
8
GEAR_1
10
19.897797
20
9.446484
0
VERTEX
8
GEAR_1
10
19.660072
20
9.333624
0
VERTEX
8
GEAR_1
10
19.422346
20
9.220764
0
VERTEX
8
GEAR_1
10
19.015544
20
10.032900
0
VERTEX
8
GEAR_1
10
18.574802
20
10.827129
0
VERTEX
8
GEAR_1
10
18.100907
20
11.602033
0
VERTEX
8
GEAR_1
10
17.594704
20
12.356229
0
VERTEX
8
GEAR_1
10
17.057097
20
13.088371
0
VERTEX
8
GEAR_1
10
16.489045
20
13.797152
0
VERTEX
8
GEAR_1
10
15.891563
20
14.481306
0
VERTEX
8
GEAR_1
10
15.265716
20
15.139614
0
VERTEX
8
GEAR_1
10
14.612622
20
15.770900
0
VERTEX
8
GEAR_1
10
13.933447
20
16.374036
0
VERTEX
8
GEAR_1
10
14.103989
20
16.574451
0
VERTEX
8
GEAR_1
10
14.274532
20
16.774866
0
VERTEX
8
GEAR_1
10
14.445075
20
16.975281
0
VERTEX
8
GEAR_1
10
14.615617
20
17.175696
0
VERTEX
8
GEAR_1
10
14.675304
20
17.238070
0
VERTEX
8
GEAR_1
10
14.738186
20
17.297720
0
VERTEX
8
GEAR_1
10
14.803170
20
17.355573
0
VERTEX
8
GEAR_1
10
14.869867
20
17.411955
0
VERTEX
8
GEAR_1
10
14.938056
20
17.467050
0
VERTEX
8
GEAR_1
10
15.007586
20
17.520981
0
VERTEX
8
GEAR_1
10
15.078350
20
17.573836
0
VERTEX
8
GEAR_1
10
15.150262
20
17.625683
0
VERTEX
8
GEAR_1
10
15.223256
20
17.676574
0
VERTEX
8
GEAR_1
10
15.297276
20
17.726552
0
VERTEX
8
GEAR_1
10
15.372274
20
17.775652
0
VERTEX
8
GEAR_1
10
15.448212
20
17.823905
0
VERTEX
8
GEAR_1
10
15.525053
20
17.871335
0
VERTEX
8
GEAR_1
10
15.602767
20
17.917965
0
VERTEX
8
GEAR_1
10
15.681327
20
17.963813
0
VERTEX
8
GEAR_1
10
15.760706
20
18.008897
0
VERTEX
8
GEAR_1
10
15.840884
20
18.053229
0
VERTEX
8
GEAR_1
10
15.921840
20
18.096824
0
VERTEX
8
GEAR_1
10
16.003555
20
18.139693
0
VERTEX
8
GEAR_1
10
16.086011
20
18.181846
0
VERTEX
8
GEAR_1
10
16.169194
20
18.223292
0
VERTEX
8
GEAR_1
10
16.253087
20
18.264040
0
VERTEX
8
GEAR_1
10
16.337676
20
18.304096
0
VERTEX
8
GEAR_1
10
16.422950
20
18.343467
0
VERTEX
8
GEAR_1
10
16.508895
20
18.382159
0
VERTEX
8
GEAR_1
10
16.595500
20
18.420178
0
VERTEX
8
GEAR_1
10
16.682754
20
18.457528
0
VERTEX
8
GEAR_1
10
16.770647
20
18.494213
0
VERTEX
8
GEAR_1
10
16.859168
20
18.530238
0
VERTEX
8
GEAR_1
10
16.948307
20
18.565607
0
VERTEX
8
GEAR_1
10
17.038057
20
18.600321
0
VERTEX
8
GEAR_1
10
17.128408
20
18.634385
0
VERTEX
8
GEAR_1
10
17.219351
20
18.667801
0
VERTEX
8
GEAR_1
10
17.310879
20
18.700570
0
VERTEX
8
GEAR_1
10
17.402984
20
18.732696
0
VERTEX
8
GEAR_1
10
17.495658
20
18.764179
0
VERTEX
8
GEAR_1
10
17.588895
20
18.795022
0
VERTEX
8
GEAR_1
10
17.682686
20
18.825226
0
VERTEX
8
GEAR_1
10
17.777026
20
18.854792
0
VERTEX
8
GEAR_1
10
17.871908
20
18.883721
0
VERTEX
8
GEAR_1
10
18.001409
20
18.760311
0
VERTEX
8
GEAR_1
10
18.130058
20
18.636013
0
VERTEX
8
GEAR_1
10
18.257850
20
18.510833
0
VERTEX
8
GEAR_1
10
18.384776
20
18.384776
0
VERTEX
8
GEAR_1
10
18.510833
20
18.257850
0
VERTEX
8
GEAR_1
10
18.636013
20
18.130058
0
VERTEX
8
GEAR_1
10
18.760311
20
18.001409
0
VERTEX
8
GEAR_1
10
18.883721
20
17.871908
0
VERTEX
8
GEAR_1
10
18.854792
20
17.777026
0
VERTEX
8
GEAR_1
10
18.825226
20
17.682686
0
VERTEX
8
GEAR_1
10
18.795022
20
17.588895
0
VERTEX
8
GEAR_1
10
18.764179
20
17.495658
0
VERTEX
8
GEAR_1
10
18.732696
20
17.402984
0
VERTEX
8
GEAR_1
10
18.700570
20
17.310879
0
VERTEX
8
GEAR_1
10
18.667801
20
17.219351
0
VERTEX
8
GEAR_1
10
18.634385
20
17.128408
0
VERTEX
8
GEAR_1
10
18.600321
20
17.038057
0
VERTEX
8
GEAR_1
10
18.565607
20
16.948307
0
VERTEX
8
GEAR_1
10
18.530238
20
16.859168
0
VERTEX
8
GEAR_1
10
18.494213
20
16.770647
0
VERTEX
8
GEAR_1
10
18.457528
20
16.682754
0
VERTEX
8
GEAR_1
10
18.420178
20
16.595500
0
VERTEX
8
GEAR_1
10
18.382159
20
16.508895
0
VERTEX
8
GEAR_1
10
18.343467
20
16.422950
0
VERTEX
8
GEAR_1
10
18.304096
20
16.337676
0
VERTEX
8
GEAR_1
10
18.264040
20
16.253087
0
VERTEX
8
GEAR_1
10
18.223292
20
16.169194
0
VERTEX
8
GEAR_1
10
18.181846
20
16.086011
0
VERTEX
8
GEAR_1
10
18.139693
20
16.003555
0
VERTEX
8
GEAR_1
10
18.096824
20
15.921840
0
VERTEX
8
GEAR_1
10
18.053229
20
15.840884
0
VERTEX
8
GEAR_1
10
18.008897
20
15.760706
0
VERTEX
8
GEAR_1
10
17.963813
20
15.681327
0
VERTEX
8
GEAR_1
10
17.917965
20
15.602767
0
VERTEX
8
GEAR_1
10
17.871335
20
15.525053
0
VERTEX
8
GEAR_1
10
17.823905
20
15.448212
0
VERTEX
8
GEAR_1
10
17.775652
20
15.372274
0
VERTEX
8
GEAR_1
10
17.726552
20
15.297276
0
VERTEX
8
GEAR_1
10
17.676574
20
15.223256
0
VERTEX
8
GEAR_1
10
17.625683
20
15.150262
0
VERTEX
8
GEAR_1
10
17.573836
20
15.078350
0
VERTEX
8
GEAR_1
10
17.520981
20
15.007586
0
VERTEX
8
GEAR_1
10
17.467050
20
14.938056
0
VERTEX
8
GEAR_1
10
17.411955
20
14.869867
0
VERTEX
8
GEAR_1
10
17.355573
20
14.803170
0
VERTEX
8
GEAR_1
10
17.297720
20
14.738186
0
VERTEX
8
GEAR_1
10
17.238070
20
14.675304
0
VERTEX
8
GEAR_1
10
17.175696
20
14.615617
0
VERTEX
8
GEAR_1
10
16.975281
20
14.445075
0
VERTEX
8
GEAR_1
10
16.774866
20
14.274532
0
VERTEX
8
GEAR_1
10
16.574451
20
14.103989
0
VERTEX
8
GEAR_1
10
16.374036
20
13.933447
0
VERTEX
8
GEAR_1
10
15.770900
20
14.612622
0
VERTEX
8
GEAR_1
10
15.139614
20
15.265716
0
VERTEX
8
GEAR_1
10
14.481306
20
15.891563
0
VERTEX
8
GEAR_1
10
13.797152
20
16.489045
0
VERTEX
8
GEAR_1
10
13.088371
20
17.057097
0
VERTEX
8
GEAR_1
10
12.356229
20
17.594704
0
VERTEX
8
GEAR_1
10
11.602033
20
18.100907
0
VERTEX
8
GEAR_1
10
10.827129
20
18.574802
0
VERTEX
8
GEAR_1
10
10.032900
20
19.015544
0
VERTEX
8
GEAR_1
10
9.220764
20
19.422346
0
VERTEX
8
GEAR_1
10
9.333624
20
19.660072
0
VERTEX
8
GEAR_1
10
9.446484
20
19.897797
0
VERTEX
8
GEAR_1
10
9.559345
20
20.135523
0
VERTEX
8
GEAR_1
10
9.672205
20
20.373248
0
VERTEX
8
GEAR_1
10
9.713714
20
20.448945
0
VERTEX
8
GEAR_1
10
9.759015
20
20.522838
0
VERTEX
8
GEAR_1
10
9.806811
20
20.595539
0
VERTEX
8
GEAR_1
10
9.856643
20
20.667262
0
VERTEX
8
GEAR_1
10
9.908249
20
20.738128
0
VERTEX
8
GEAR_1
10
9.961451
20
20.808217
0
VERTEX
8
GEAR_1
10
10.016124
20
20.877586
0
VERTEX
8
GEAR_1
10
10.072167
20
20.946279
0
VERTEX
8
GEAR_1
10
10.129502
20
21.014328
0
VERTEX
8
GEAR_1
10
10.188064
20
21.081760
0
VERTEX
8
GEAR_1
10
10.247800
20
21.148599
0
VERTEX
8
GEAR_1
10
10.308661
20
21.214861
0
VERTEX
8
GEAR_1
10
10.370608
20
21.280564
0
VERTEX
8
GEAR_1
10
10.433605
20
21.345719
0
VERTEX
8
GEAR_1
10
10.497621
20
21.410337
0
VERTEX
8
GEAR_1
10
10.562628
20
21.474429
0
VERTEX
8
GEAR_1
10
10.628600
20
21.538003
0
VERTEX
8
GEAR_1
10
10.695514
20
21.601066
0
VERTEX
8
GEAR_1
10
10.763349
20
21.663623
0
VERTEX
8
GEAR_1
10
10.832086
20
21.725681
0
VERTEX
8
GEAR_1
10
10.901706
20
21.787244
0
VERTEX
8
GEAR_1
10
10.972195
20
21.848316
0
VERTEX
8
GEAR_1
10
11.043535
20
21.908900
0
VERTEX
8
GEAR_1
10
11.115713
20
21.969000
0
VERTEX
8
GEAR_1
10
11.188716
20
22.028619
0
VERTEX
8
GEAR_1
10
11.262530
20
22.087757
0
VERTEX
8
GEAR_1
10
11.337144
20
22.146417
0
VERTEX
8
GEAR_1
10
11.412546
20
22.204601
0
VERTEX
8
GEAR_1
10
11.488727
20
22.262309
0
VERTEX
8
GEAR_1
10
11.565675
20
22.319544
0
VERTEX
8
GEAR_1
10
11.643382
20
22.376304
0
VERTEX
8
GEAR_1
10
11.721838
20
22.432592
0
VERTEX
8
GEAR_1
10
11.801034
20
22.488407
0
VERTEX
8
GEAR_1
10
11.880962
20
22.543749
0
VERTEX
8
GEAR_1
10
11.961613
20
22.598618
0
VERTEX
8
GEAR_1
10
12.042981
20
22.653015
0
VERTEX
8
GEAR_1
10
12.125058
20
22.706938
0
VERTEX
8
GEAR_1
10
12.207837
20
22.760388
0
VERTEX
8
GEAR_1
10
12.291310
20
22.813363
0
VERTEX
8
GEAR_1
10
12.375470
20
22.865864
0
VERTEX
8
GEAR_1
10
12.532500
20
22.780176
0
VERTEX
8
GEAR_1
10
12.688937
20
22.693411
0
VERTEX
8
GEAR_1
10
12.844772
20
22.605571
0
VERTEX
8
GEAR_1
10
13.000000
20
22.516660
0
VERTEX
8
GEAR_1
10
13.154612
20
22.426684
0
VERTEX
8
GEAR_1
10
13.308602
20
22.335647
0
VERTEX
8
GEAR_1
10
13.461961
20
22.243552
0
VERTEX
8
GEAR_1
10
13.614684
20
22.150404
0
VERTEX
8
GEAR_1
10
13.611297
20
22.051268
0
VERTEX
8
GEAR_1
10
13.607156
20
21.952491
0
VERTEX
8
GEAR_1
10
13.602256
20
21.854078
0
VERTEX
8
GEAR_1
10
13.596596
20
21.756035
0
VERTEX
8
GEAR_1
10
13.590171
20
21.658370
0
VERTEX
8
GEAR_1
10
13.582978
20
21.561089
0
VERTEX
8
GEAR_1
10
13.575015
20
21.464198
0
VERTEX
8
GEAR_1
10
13.566276
20
21.367705
0
VERTEX
8
GEAR_1
10
13.556757
20
21.271617
0
VERTEX
8
GEAR_1
10
13.546454
20
21.175940
0
VERTEX
8
GEAR_1
10
13.535362
20
21.080684
0
VERTEX
8
GEAR_1
10
13.523475
20
20.985855
0
VERTEX
8
GEAR_1
10
13.510788
20
20.891463
0
VERTEX
8
GEAR_1
10
13.497294
20
20.797515
0
VERTEX
8
GEAR_1
10
13.482985
20
20.704021
0
VERTEX
8
GEAR_1
10
13.467856
20
20.610990
0
VERTEX
8
GEAR_1
10
13.451897
20
20.518432
0
VERTEX
8
GEAR_1
10
13.435099
20
20.426357
0
VERTEX
8
GEAR_1
10
13.417454
20
20.334777
0
VERTEX
8
GEAR_1
10
13.398949
20
20.243702
0
VERTEX
8
GEAR_1
10
13.379574
20
20.153145
0
VERTEX
8
GEAR_1
10
13.359315
20
20.063119
0
VERTEX
8
GEAR_1
10
13.338158
20
19.973639
0
VERTEX
8
GEAR_1
10
13.316087
20
19.884719
0
VERTEX
8
GEAR_1
10
13.293085
20
19.796375
0
VERTEX
8
GEAR_1
10
13.269132
20
19.708626
0
VERTEX
8
GEAR_1
10
13.244205
20
19.621492
0
VERTEX
8
GEAR_1
10
13.218278
20
19.534993
0
VERTEX
8
GEAR_1
10
13.191324
20
19.449154
0
VERTEX
8
GEAR_1
10
13.163308
20
19.364003
0
VERTEX
8
GEAR_1
10
13.134191
20
19.279570
0
VERTEX
8
GEAR_1
10
13.103926
20
19.195892
0
VERTEX
8
GEAR_1
10
13.072458
20
19.113011
0
VERTEX
8
GEAR_1
10
13.039719
20
19.030979
0
VERTEX
8
GEAR_1
10
13.005621
20
18.949859
0
VERTEX
8
GEAR_1
10
12.970052
20
18.869734
0
VERTEX
8
GEAR_1
10
12.932854
20
18.790717
0
VERTEX
8
GEAR_1
10
12.893791
20
18.712974
0
VERTEX
8
GEAR_1
10
12.852449
20
18.636796
0
VERTEX
8
GEAR_1
10
12.807648
20
18.562999
0
VERTEX
8
GEAR_1
10
12.658202
20
18.346397
0
VERTEX
8
GEAR_1
10
12.508756
20
18.129794
0
VERTEX
8
GEAR_1
10
12.359309
20
17.913191
0
VERTEX
8
GEAR_1
10
12.209863
20
17.696588
0
VERTEX
8
GEAR_1
10
11.451494
20
18.196518
0
VERTEX
8
GEAR_1
10
10.672686
20
18.663970
0
VERTEX
8
GEAR_1
10
9.874829
20
19.098109
0
VERTEX
8
GEAR_1
10
9.059346
20
19.498160
0
VERTEX
8
GEAR_1
10
8.227694
20
19.863410
0
VERTEX
8
GEAR_1
10
7.381356
20
20.193206
0
VERTEX
8
GEAR_1
10
6.521844
20
20.486961
0
VERTEX
8
GEAR_1
10
5.650691
20
20.744148
0
VERTEX
8
GEAR_1
10
4.769452
20
20.964311
0
VERTEX
8
GEAR_1
10
3.879701
20
21.147055
0
VERTEX
8
GEAR_1
10
3.927187
20
21.405890
0
VERTEX
8
GEAR_1
10
3.974674
20
21.664726
0
VERTEX
8
GEAR_1
10
4.022161
20
21.923562
0
VERTEX
8
GEAR_1
10
4.069648
20
22.182398
0
VERTEX
8
GEAR_1
10
4.090151
20
22.266258
0
VERTEX
8
GEAR_1
10
4.114784
20
22.349358
0
VERTEX
8
GEAR_1
10
4.142135
20
22.431952
0
VERTEX
8
GEAR_1
10
4.171705
20
22.514129
0
VERTEX
8
GEAR_1
10
4.203211
20
22.595937
0
VERTEX
8
GEAR_1
10
4.236460
20
22.677408
0
VERTEX
8
GEAR_1
10
4.271316
20
22.758563
0
VERTEX
8
GEAR_1
10
4.307670
20
22.839420
0
VERTEX
8
GEAR_1
10
4.345439
20
22.919990
0
VERTEX
8
GEAR_1
10
4.384554
20
23.000282
0
VERTEX
8
GEAR_1
10
4.424954
20
23.080303
0
VERTEX
8
GEAR_1
10
4.466592
20
23.160060
0
VERTEX
8
GEAR_1
10
4.509423
20
23.239557
0
VERTEX
8
GEAR_1
10
4.553410
20
23.318797
0
VERTEX
8
GEAR_1
10
4.598520
20
23.397782
0
VERTEX
8
GEAR_1
10
4.644724
20
23.476515
0
VERTEX
8
GEAR_1
10
4.691994
20
23.554997
0
VERTEX
8
GEAR_1
10
4.740306
20
23.633230
0
VERTEX
8
GEAR_1
10
4.789638
20
23.711213
0
VERTEX
8
GEAR_1
10
4.839971
20
23.788947
0
VERTEX
8
GEAR_1
10
4.891286
20
23.866431
0
VERTEX
8
GEAR_1
10
4.943566
20
23.943666
0
VERTEX
8
GEAR_1
10
4.996795
20
24.020650
0
VERTEX
8
GEAR_1
10
5.050959
20
24.097383
0
VERTEX
8
GEAR_1
10
5.106043
20
24.173864
0
VERTEX
8
GEAR_1
10
5.162036
20
24.250092
0
VERTEX
8
GEAR_1
10
5.218925
20
24.326065
0
VERTEX
8
GEAR_1
10
5.276700
20
24.401782
0
VERTEX
8
GEAR_1
10
5.335348
20
24.477241
0
VERTEX
8
GEAR_1
10
5.394861
20
24.552441
0
VERTEX
8
GEAR_1
10
5.455230
20
24.627379
0
VERTEX
8
GEAR_1
10
5.516444
20
24.702055
0
VERTEX
8
GEAR_1
10
5.578495
20
24.776465
0
VERTEX
8
GEAR_1
10
5.641376
20
24.850608
0
VERTEX
8
GEAR_1
10
5.705079
20
24.924482
0
VERTEX
8
GEAR_1
10
5.769595
20
24.998085
0
VERTEX
8
GEAR_1
10
5.834919
20
25.071414
0
VERTEX
8
GEAR_1
10
5.901043
20
25.144467
0
VERTEX
8
GEAR_1
10
5.967960
20
25.217242
0
VERTEX
8
GEAR_1
10
6.035666
20
25.289736
0
VERTEX
8
GEAR_1
10
6.209522
20
25.247610
0
VERTEX
8
GEAR_1
10
6.383085
20
25.204290
0
VERTEX
8
GEAR_1
10
6.556345
20
25.159776
0
VERTEX
8
GEAR_1
10
6.729295
20
25.114071
0
VERTEX
8
GEAR_1
10
6.901927
20
25.067178
0
VERTEX
8
GEAR_1
10
7.074231
20
25.019098
0
VERTEX
8
GEAR_1
10
7.246201
20
24.969833
0
VERTEX
8
GEAR_1
10
7.417828
20
24.919386
0
VERTEX
8
GEAR_1
10
7.440216
20
24.822752
0
VERTEX
8
GEAR_1
10
7.461781
20
24.726269
0
VERTEX
8
GEAR_1
10
7.482519
20
24.629941
0
VERTEX
8
GEAR_1
10
7.502427
20
24.533774
0
VERTEX
8
GEAR_1
10
7.521498
20
24.437774
0
VERTEX
8
GEAR_1
10
7.539729
20
24.341946
0
VERTEX
8
GEAR_1
10
7.557114
20
24.246296
0
VERTEX
8
GEAR_1
10
7.573647
20
24.150829
0
VERTEX
8
GEAR_1
10
7.589322
20
24.055551
0
VERTEX
8
GEAR_1
10
7.604133
20
23.960468
0
VERTEX
8
GEAR_1
10
7.618073
20
23.865587
0
VERTEX
8
GEAR_1
10
7.631135
20
23.770913
0
VERTEX
8
GEAR_1
10
7.643311
20
23.676453
0
VERTEX
8
GEAR_1
10
7.654591
20
23.582214
0
VERTEX
8
GEAR_1
10
7.664969
20
23.488202
0
VERTEX
8
GEAR_1
10
7.674433
20
23.394425
0
VERTEX
8
GEAR_1
10
7.682974
20
23.300891
0
VERTEX
8
GEAR_1
10
7.690579
20
23.207606
0
VERTEX
8
GEAR_1
10
7.697237
20
23.114579
0
VERTEX
8
GEAR_1
10
7.702935
20
23.021818
0
VERTEX
8
GEAR_1
10
7.707658
20
22.929332
0
VERTEX
8
GEAR_1
10
7.711390
20
22.837130
0
VERTEX
8
GEAR_1
10
7.714113
20
22.745223
0
VERTEX
8
GEAR_1
10
7.715809
20
22.653620
0
VERTEX
8
GEAR_1
10
7.716455
20
22.562334
0
VERTEX
8
GEAR_1
10
7.716029
20
22.471375
0
VERTEX
8
GEAR_1
10
7.714504
20
22.380758
0
VERTEX
8
GEAR_1
10
7.711848
20
22.290496
0
VERTEX
8
GEAR_1
10
7.708029
20
22.200606
0
VERTEX
8
GEAR_1
10
7.703006
20
22.111105
0
VERTEX
8
GEAR_1
10
7.696734
20
22.022013
0
VERTEX
8
GEAR_1
10
7.689158
20
21.933353
0
VERTEX
8
GEAR_1
10
7.680214
20
21.845152
0
VERTEX
8
GEAR_1
10
7.669822
20
21.757441
0
VERTEX
8
GEAR_1
10
7.657881
20
21.670261
0
VERTEX
8
GEAR_1
10
7.644262
20
21.583660
0
VERTEX
8
GEAR_1
10
7.628782
20
21.497708
0
VERTEX
8
GEAR_1
10
7.611172
20
21.412504
0
VERTEX
8
GEAR_1
10
7.590955
20
21.328221
0
VERTEX
8
GEAR_1
10
7.566781
20
21.245344
0
VERTEX
8
GEAR_1
10
7.478487
20
20.997442
0
VERTEX
8
GEAR_1
10
7.390194
20
20.749540
0
VERTEX
8
GEAR_1
10
7.301901
20
20.501639
0
VERTEX
8
GEAR_1
10
7.213608
20
20.253737
0
VERTEX
8
GEAR_1
10
6.351689
20
20.540352
0
VERTEX
8
GEAR_1
10
5.478432
20
20.790305
0
VERTEX
8
GEAR_1
10
4.595398
20
21.003150
0
VERTEX
8
GEAR_1
10
3.704161
20
21.178508
0
VERTEX
8
GEAR_1
10
2.806313
20
21.316065
0
VERTEX
8
GEAR_1
10
1.903456
20
21.415575
0
VERTEX
8
GEAR_1
10
0.997202
20
21.476862
0
VERTEX
8
GEAR_1
10
0.089168
20
21.499815
0
VERTEX
8
GEAR_1
10
-0.819026
20
21.484394
0
VERTEX
8
GEAR_1
10
-1.725757
20
21.430627
0
VERTEX
8
GEAR_1
10
-1.746880
20
21.692933
0
VERTEX
8
GEAR_1
10
-1.768003
20
21.955240
0
VERTEX
8
GEAR_1
10
-1.789126
20
22.217547
0
VERTEX
8
GEAR_1
10
-1.810249
20
22.479853
0
VERTEX
8
GEAR_1
10
-1.812150
20
22.566163
0
VERTEX
8
GEAR_1
10
-1.809864
20
22.652807
0
VERTEX
8
GEAR_1
10
-1.804821
20
22.739665
0
VERTEX
8
GEAR_1
10
-1.797527
20
22.826695
0
VERTEX
8
GEAR_1
10
-1.788269
20
22.913870
0
VERTEX
8
GEAR_1
10
-1.777239
20
23.001170
0
VERTEX
8
GEAR_1
10
-1.764576
20
23.088582
0
VERTEX
8
GEAR_1
10
-1.750387
20
23.176093
0
VERTEX
8
GEAR_1
10
-1.734758
20
23.263693
0
VERTEX
8
GEAR_1
10
-1.717757
20
23.351372
0
VERTEX
8
GEAR_1
10
-1.699445
20
23.439124
0
VERTEX
8
GEAR_1
10
-1.679868
20
23.526939
0
VERTEX
8
GEAR_1
10
-1.659072
20
23.614813
0
VERTEX
8
GEAR_1
10
-1.637092
20
23.702737
0
VERTEX
8
GEAR_1
10
-1.613962
20
23.790707
0
VERTEX
8
GEAR_1
10
-1.589711
20
23.878715
0
VERTEX
8
GEAR_1
10
-1.564364
20
23.966758
0
VERTEX
8
GEAR_1
10
-1.537946
20
24.054828
0
VERTEX
8
GEAR_1
10
-1.510478
20
24.142922
0
VERTEX
8
GEAR_1
10
-1.481979
20
24.231035
0
VERTEX
8
GEAR_1
10
-1.452467
20
24.319160
0
VERTEX
8
GEAR_1
10
-1.421959
20
24.407294
0
VERTEX
8
GEAR_1
10
-1.390468
20
24.495432
0
VERTEX
8
GEAR_1
10
-1.358010
20
24.583569
0
VERTEX
8
GEAR_1
10
-1.324597
20
24.671701
0
VERTEX
8
GEAR_1
10
-1.290242
20
24.759823
0
VERTEX
8
GEAR_1
10
-1.254954
20
24.847932
0
VERTEX
8
GEAR_1
10
-1.218745
20
24.936022
0
VERTEX
8
GEAR_1
10
-1.181625
20
25.024089
0
VERTEX
8
GEAR_1
10
-1.143603
20
25.112129
0
VERTEX
8
GEAR_1
10
-1.104688
20
25.200139
0
VERTEX
8
GEAR_1
10
-1.064887
20
25.288113
0
VERTEX
8
GEAR_1
10
-1.024208
20
25.376048
0
VERTEX
8
GEAR_1
10
-0.982660
20
25.463940
0
VERTEX
8
GEAR_1
10
-0.940248
20
25.551784
0
VERTEX
8
GEAR_1
10
-0.896980
20
25.639577
0
VERTEX
8
GEAR_1
10
-0.852861
20
25.727314
0
VERTEX
8
GEAR_1
10
-0.807897
20
25.814992
0
VERTEX
8
GEAR_1
10
-0.762095
20
25.902607
0
VERTEX
8
GEAR_1
10
-0.715460
20
25.990154
0
VERTEX
8
GEAR_1
10
-0.536625
20
25.994462
0
VERTEX
8
GEAR_1
10
-0.357764
20
25.997538
0
VERTEX
8
GEAR_1
10
-0.178886
20
25.999385
0
VERTEX
8
GEAR_1
10
0.000000
20
26.000000
0
VERTEX
8
GEAR_1
10
0.178886
20
25.999385
0
VERTEX
8
GEAR_1
10
0.357764
20
25.997538
0
VERTEX
8
GEAR_1
10
0.536625
20
25.994462
0
VERTEX
8
GEAR_1
10
0.715460
20
25.990154
0
VERTEX
8
GEAR_1
10
0.762095
20
25.902607
0
VERTEX
8
GEAR_1
10
0.807897
20
25.814992
0
VERTEX
8
GEAR_1
10
0.852861
20
25.727314
0
VERTEX
8
GEAR_1
10
0.896980
20
25.639577
0
VERTEX
8
GEAR_1
10
0.940248
20
25.551784
0
VERTEX
8
GEAR_1
10
0.982660
20
25.463940
0
VERTEX
8
GEAR_1
10
1.024208
20
25.376048
0
VERTEX
8
GEAR_1
10
1.064887
20
25.288113
0
VERTEX
8
GEAR_1
10
1.104688
20
25.200139
0
VERTEX
8
GEAR_1
10
1.143603
20
25.112129
0
VERTEX
8
GEAR_1
10
1.181625
20
25.024089
0
VERTEX
8
GEAR_1
10
1.218745
20
24.936022
0
VERTEX
8
GEAR_1
10
1.254954
20
24.847932
0
VERTEX
8
GEAR_1
10
1.290242
20
24.759823
0
VERTEX
8
GEAR_1
10
1.324597
20
24.671701
0
VERTEX
8
GEAR_1
10
1.358010
20
24.583569
0
VERTEX
8
GEAR_1
10
1.390468
20
24.495432
0
VERTEX
8
GEAR_1
10
1.421959
20
24.407294
0
VERTEX
8
GEAR_1
10
1.452467
20
24.319160
0
VERTEX
8
GEAR_1
10
1.481979
20
24.231035
0
VERTEX
8
GEAR_1
10
1.510478
20
24.142922
0
VERTEX
8
GEAR_1
10
1.537946
20
24.054828
0
VERTEX
8
GEAR_1
10
1.564364
20
23.966758
0
VERTEX
8
GEAR_1
10
1.589711
20
23.878715
0
VERTEX
8
GEAR_1
10
1.613962
20
23.790707
0
VERTEX
8
GEAR_1
10
1.637092
20
23.702737
0
VERTEX
8
GEAR_1
10
1.659072
20
23.614813
0
VERTEX
8
GEAR_1
10
1.679868
20
23.526939
0
VERTEX
8
GEAR_1
10
1.699445
20
23.439124
0
VERTEX
8
GEAR_1
10
1.717757
20
23.351372
0
VERTEX
8
GEAR_1
10
1.734758
20
23.263693
0
VERTEX
8
GEAR_1
10
1.750387
20
23.176093
0
VERTEX
8
GEAR_1
10
1.764576
20
23.088582
0
VERTEX
8
GEAR_1
10
1.777239
20
23.001170
0
VERTEX
8
GEAR_1
10
1.788269
20
22.913870
0
VERTEX
8
GEAR_1
10
1.797527
20
22.826695
0
VERTEX
8
GEAR_1
10
1.804821
20
22.739665
0
VERTEX
8
GEAR_1
10
1.809864
20
22.652807
0
VERTEX
8
GEAR_1
10
1.812150
20
22.566163
0
VERTEX
8
GEAR_1
10
1.810249
20
22.479853
0
VERTEX
8
GEAR_1
10
1.789126
20
22.217547
0
VERTEX
8
GEAR_1
10
1.768003
20
21.955240
0
VERTEX
8
GEAR_1
10
1.746880
20
21.692933
0
VERTEX
8
GEAR_1
10
1.725757
20
21.430627
0
VERTEX
8
GEAR_1
10
0.819026
20
21.484394
0
VERTEX
8
GEAR_1
10
-0.089168
20
21.499815
0
VERTEX
8
GEAR_1
10
-0.997202
20
21.476862
0
VERTEX
8
GEAR_1
10
-1.903456
20
21.415575
0
VERTEX
8
GEAR_1
10
-2.806313
20
21.316065
0
VERTEX
8
GEAR_1
10
-3.704161
20
21.178508
0
VERTEX
8
GEAR_1
10
-4.595398
20
21.003150
0
VERTEX
8
GEAR_1
10
-5.478432
20
20.790305
0
VERTEX
8
GEAR_1
10
-6.351689
20
20.540352
0
VERTEX
8
GEAR_1
10
-7.213608
20
20.253737
0
VERTEX
8
GEAR_1
10
-7.301901
20
20.501639
0
VERTEX
8
GEAR_1
10
-7.390194
20
20.749540
0
VERTEX
8
GEAR_1
10
-7.478487
20
20.997442
0
VERTEX
8
GEAR_1
10
-7.566781
20
21.245344
0
VERTEX
8
GEAR_1
10
-7.590955
20
21.328221
0
VERTEX
8
GEAR_1
10
-7.611172
20
21.412504
0
VERTEX
8
GEAR_1
10
-7.628782
20
21.497708
0
VERTEX
8
GEAR_1
10
-7.644262
20
21.583660
0
VERTEX
8
GEAR_1
10
-7.657881
20
21.670261
0
VERTEX
8
GEAR_1
10
-7.669822
20
21.757441
0
VERTEX
8
GEAR_1
10
-7.680214
20
21.845152
0
VERTEX
8
GEAR_1
10
-7.689158
20
21.933353
0
VERTEX
8
GEAR_1
10
-7.696734
20
22.022013
0
VERTEX
8
GEAR_1
10
-7.703006
20
22.111105
0
VERTEX
8
GEAR_1
10
-7.708029
20
22.200606
0
VERTEX
8
GEAR_1
10
-7.711848
20
22.290496
0
VERTEX
8
GEAR_1
10
-7.714504
20
22.380758
0
VERTEX
8
GEAR_1
10
-7.716029
20
22.471375
0
VERTEX
8
GEAR_1
10
-7.716455
20
22.562334
0
VERTEX
8
GEAR_1
10
-7.715809
20
22.653620
0
VERTEX
8
GEAR_1
10
-7.714113
20
22.745223
0
VERTEX
8
GEAR_1
10
-7.711390
20
22.837130
0
VERTEX
8
GEAR_1
10
-7.707658
20
22.929332
0
VERTEX
8
GEAR_1
10
-7.702935
20
23.021818
0
VERTEX
8
GEAR_1
10
-7.697237
20
23.114579
0
VERTEX
8
GEAR_1
10
-7.690579
20
23.207606
0
VERTEX
8
GEAR_1
10
-7.682974
20
23.300891
0
VERTEX
8
GEAR_1
10
-7.674433
20
23.394425
0
VERTEX
8
GEAR_1
10
-7.664969
20
23.488202
0
VERTEX
8
GEAR_1
10
-7.654591
20
23.582214
0
VERTEX
8
GEAR_1
10
-7.643311
20
23.676453
0
VERTEX
8
GEAR_1
10
-7.631135
20
23.770913
0
VERTEX
8
GEAR_1
10
-7.618073
20
23.865587
0
VERTEX
8
GEAR_1
10
-7.604133
20
23.960468
0
VERTEX
8
GEAR_1
10
-7.589322
20
24.055551
0
VERTEX
8
GEAR_1
10
-7.573647
20
24.150829
0
VERTEX
8
GEAR_1
10
-7.557114
20
24.246296
0
VERTEX
8
GEAR_1
10
-7.539729
20
24.341946
0
VERTEX
8
GEAR_1
10
-7.521498
20
24.437774
0
VERTEX
8
GEAR_1
10
-7.502427
20
24.533774
0
VERTEX
8
GEAR_1
10
-7.482519
20
24.629941
0
VERTEX
8
GEAR_1
10
-7.461781
20
24.726269
0
VERTEX
8
GEAR_1
10
-7.440216
20
24.822752
0
VERTEX
8
GEAR_1
10
-7.417828
20
24.919386
0
VERTEX
8
GEAR_1
10
-7.246201
20
24.969833
0
VERTEX
8
GEAR_1
10
-7.074231
20
25.019098
0
VERTEX
8
GEAR_1
10
-6.901927
20
25.067178
0
VERTEX
8
GEAR_1
10
-6.729295
20
25.114071
0
VERTEX
8
GEAR_1
10
-6.556345
20
25.159776
0
VERTEX
8
GEAR_1
10
-6.383085
20
25.204290
0
VERTEX
8
GEAR_1
10
-6.209522
20
25.247610
0
VERTEX
8
GEAR_1
10
-6.035666
20
25.289736
0
VERTEX
8
GEAR_1
10
-5.967960
20
25.217242
0
VERTEX
8
GEAR_1
10
-5.901043
20
25.144467
0
VERTEX
8
GEAR_1
10
-5.834919
20
25.071414
0
VERTEX
8
GEAR_1
10
-5.769595
20
24.998085
0
VERTEX
8
GEAR_1
10
-5.705079
20
24.924482
0
VERTEX
8
GEAR_1
10
-5.641376
20
24.850608
0
VERTEX
8
GEAR_1
10
-5.578495
20
24.776465
0
VERTEX
8
GEAR_1
10
-5.516444
20
24.702055
0
VERTEX
8
GEAR_1
10
-5.455230
20
24.627379
0
VERTEX
8
GEAR_1
10
-5.394861
20
24.552441
0
VERTEX
8
GEAR_1
10
-5.335348
20
24.477241
0
VERTEX
8
GEAR_1
10
-5.276700
20
24.401782
0
VERTEX
8
GEAR_1
10
-5.218925
20
24.326065
0
VERTEX
8
GEAR_1
10
-5.162036
20
24.250092
0
VERTEX
8
GEAR_1
10
-5.106043
20
24.173864
0
VERTEX
8
GEAR_1
10
-5.050959
20
24.097383
0
VERTEX
8
GEAR_1
10
-4.996795
20
24.020650
0
VERTEX
8
GEAR_1
10
-4.943566
20
23.943666
0
VERTEX
8
GEAR_1
10
-4.891286
20
23.866431
0
VERTEX
8
GEAR_1
10
-4.839971
20
23.788947
0
VERTEX
8
GEAR_1
10
-4.789638
20
23.711213
0
VERTEX
8
GEAR_1
10
-4.740306
20
23.633230
0
VERTEX
8
GEAR_1
10
-4.691994
20
23.554997
0
VERTEX
8
GEAR_1
10
-4.644724
20
23.476515
0
VERTEX
8
GEAR_1
10
-4.598520
20
23.397782
0
VERTEX
8
GEAR_1
10
-4.553410
20
23.318797
0
VERTEX
8
GEAR_1
10
-4.509423
20
23.239557
0
VERTEX
8
GEAR_1
10
-4.466592
20
23.160060
0
VERTEX
8
GEAR_1
10
-4.424954
20
23.080303
0
VERTEX
8
GEAR_1
10
-4.384554
20
23.000282
0
VERTEX
8
GEAR_1
10
-4.345439
20
22.919990
0
VERTEX
8
GEAR_1
10
-4.307670
20
22.839420
0
VERTEX
8
GEAR_1
10
-4.271316
20
22.758563
0
VERTEX
8
GEAR_1
10
-4.236460
20
22.677408
0
VERTEX
8
GEAR_1
10
-4.203211
20
22.595937
0
VERTEX
8
GEAR_1
10
-4.171705
20
22.514129
0
VERTEX
8
GEAR_1
10
-4.142135
20
22.431952
0
VERTEX
8
GEAR_1
10
-4.114784
20
22.349358
0
VERTEX
8
GEAR_1
10
-4.090151
20
22.266258
0
VERTEX
8
GEAR_1
10
-4.069648
20
22.182398
0
VERTEX
8
GEAR_1
10
-4.022161
20
21.923562
0
VERTEX
8
GEAR_1
10
-3.974674
20
21.664726
0
VERTEX
8
GEAR_1
10
-3.927187
20
21.405890
0
VERTEX
8
GEAR_1
10
-3.879701
20
21.147055
0
VERTEX
8
GEAR_1
10
-4.769452
20
20.964311
0
VERTEX
8
GEAR_1
10
-5.650691
20
20.744148
0
VERTEX
8
GEAR_1
10
-6.521844
20
20.486961
0
VERTEX
8
GEAR_1
10
-7.381356
20
20.193206
0
VERTEX
8
GEAR_1
10
-8.227694
20
19.863410
0
VERTEX
8
GEAR_1
10
-9.059346
20
19.498160
0
VERTEX
8
GEAR_1
10
-9.874829
20
19.098109
0
VERTEX
8
GEAR_1
10
-10.672686
20
18.663970
0
VERTEX
8
GEAR_1
10
-11.451494
20
18.196518
0
VERTEX
8
GEAR_1
10
-12.209863
20
17.696588
0
VERTEX
8
GEAR_1
10
-12.359309
20
17.913191
0
VERTEX
8
GEAR_1
10
-12.508756
20
18.129794
0
VERTEX
8
GEAR_1
10
-12.658202
20
18.346397
0
VERTEX
8
GEAR_1
10
-12.807648
20
18.562999
0
VERTEX
8
GEAR_1
10
-12.852449
20
18.636796
0
VERTEX
8
GEAR_1
10
-12.893791
20
18.712974
0
VERTEX
8
GEAR_1
10
-12.932854
20
18.790717
0
VERTEX
8
GEAR_1
10
-12.970052
20
18.869734
0
VERTEX
8
GEAR_1
10
-13.005621
20
18.949859
0
VERTEX
8
GEAR_1
10
-13.039719
20
19.030979
0
VERTEX
8
GEAR_1
10
-13.072458
20
19.113011
0
VERTEX
8
GEAR_1
10
-13.103926
20
19.195892
0
VERTEX
8
GEAR_1
10
-13.134191
20
19.279570
0
VERTEX
8
GEAR_1
10
-13.163308
20
19.364003
0
VERTEX
8
GEAR_1
10
-13.191324
20
19.449154
0
VERTEX
8
GEAR_1
10
-13.218278
20
19.534993
0
VERTEX
8
GEAR_1
10
-13.244205
20
19.621492
0
VERTEX
8
GEAR_1
10
-13.269132
20
19.708626
0
VERTEX
8
GEAR_1
10
-13.293085
20
19.796375
0
VERTEX
8
GEAR_1
10
-13.316087
20
19.884719
0
VERTEX
8
GEAR_1
10
-13.338158
20
19.973639
0
VERTEX
8
GEAR_1
10
-13.359315
20
20.063119
0
VERTEX
8
GEAR_1
10
-13.379574
20
20.153145
0
VERTEX
8
GEAR_1
10
-13.398949
20
20.243702
0
VERTEX
8
GEAR_1
10
-13.417454
20
20.334777
0
VERTEX
8
GEAR_1
10
-13.435099
20
20.426357
0
VERTEX
8
GEAR_1
10
-13.451897
20
20.518432
0
VERTEX
8
GEAR_1
10
-13.467856
20
20.610990
0
VERTEX
8
GEAR_1
10
-13.482985
20
20.704021
0
VERTEX
8
GEAR_1
10
-13.497294
20
20.797515
0
VERTEX
8
GEAR_1
10
-13.510788
20
20.891463
0
VERTEX
8
GEAR_1
10
-13.523475
20
20.985855
0
VERTEX
8
GEAR_1
10
-13.535362
20
21.080684
0
VERTEX
8
GEAR_1
10
-13.546454
20
21.175940
0
VERTEX
8
GEAR_1
10
-13.556757
20
21.271617
0
VERTEX
8
GEAR_1
10
-13.566276
20
21.367705
0
VERTEX
8
GEAR_1
10
-13.575015
20
21.464198
0
VERTEX
8
GEAR_1
10
-13.582978
20
21.561089
0
VERTEX
8
GEAR_1
10
-13.590171
20
21.658370
0
VERTEX
8
GEAR_1
10
-13.596596
20
21.756035
0
VERTEX
8
GEAR_1
10
-13.602256
20
21.854078
0
VERTEX
8
GEAR_1
10
-13.607156
20
21.952491
0
VERTEX
8
GEAR_1
10
-13.611297
20
22.051268
0
VERTEX
8
GEAR_1
10
-13.614684
20
22.150404
0
VERTEX
8
GEAR_1
10
-13.461961
20
22.243552
0
VERTEX
8
GEAR_1
10
-13.308602
20
22.335647
0
VERTEX
8
GEAR_1
10
-13.154612
20
22.426684
0
VERTEX
8
GEAR_1
10
-13.000000
20
22.516660
0
VERTEX
8
GEAR_1
10
-12.844772
20
22.605571
0
VERTEX
8
GEAR_1
10
-12.688937
20
22.693411
0
VERTEX
8
GEAR_1
10
-12.532500
20
22.780176
0
VERTEX
8
GEAR_1
10
-12.375470
20
22.865864
0
VERTEX
8
GEAR_1
10
-12.291310
20
22.813363
0
VERTEX
8
GEAR_1
10
-12.207837
20
22.760388
0
VERTEX
8
GEAR_1
10
-12.125058
20
22.706938
0
VERTEX
8
GEAR_1
10
-12.042981
20
22.653015
0
VERTEX
8
GEAR_1
10
-11.961613
20
22.598618
0
VERTEX
8
GEAR_1
10
-11.880962
20
22.543749
0
VERTEX
8
GEAR_1
10
-11.801034
20
22.488407
0
VERTEX
8
GEAR_1
10
-11.721838
20
22.432592
0
VERTEX
8
GEAR_1
10
-11.643382
20
22.376304
0
VERTEX
8
GEAR_1
10
-11.565675
20
22.319544
0
VERTEX
8
GEAR_1
10
-11.488727
20
22.262309
0
VERTEX
8
GEAR_1
10
-11.412546
20
22.204601
0
VERTEX
8
GEAR_1
10
-11.337144
20
22.146417
0
VERTEX
8
GEAR_1
10
-11.262530
20
22.087757
0
VERTEX
8
GEAR_1
10
-11.188716
20
22.028619
0
VERTEX
8
GEAR_1
10
-11.115713
20
21.969000
0
VERTEX
8
GEAR_1
10
-11.043535
20
21.908900
0
VERTEX
8
GEAR_1
10
-10.972195
20
21.848316
0
VERTEX
8
GEAR_1
10
-10.901706
20
21.787244
0
VERTEX
8
GEAR_1
10
-10.832086
20
21.725681
0
VERTEX
8
GEAR_1
10
-10.763349
20
21.663623
0
VERTEX
8
GEAR_1
10
-10.695514
20
21.601066
0
VERTEX
8
GEAR_1
10
-10.628600
20
21.538003
0
VERTEX
8
GEAR_1
10
-10.562628
20
21.474429
0
VERTEX
8
GEAR_1
10
-10.497621
20
21.410337
0
VERTEX
8
GEAR_1
10
-10.433605
20
21.345719
0
VERTEX
8
GEAR_1
10
-10.370608
20
21.280564
0
VERTEX
8
GEAR_1
10
-10.308661
20
21.214861
0
VERTEX
8
GEAR_1
10
-10.247800
20
21.148599
0
VERTEX
8
GEAR_1
10
-10.188064
20
21.081760
0
VERTEX
8
GEAR_1
10
-10.129502
20
21.014328
0
VERTEX
8
GEAR_1
10
-10.072167
20
20.946279
0
VERTEX
8
GEAR_1
10
-10.016124
20
20.877586
0
VERTEX
8
GEAR_1
10
-9.961451
20
20.808217
0
VERTEX
8
GEAR_1
10
-9.908249
20
20.738128
0
VERTEX
8
GEAR_1
10
-9.856643
20
20.667262
0
VERTEX
8
GEAR_1
10
-9.806811
20
20.595539
0
VERTEX
8
GEAR_1
10
-9.759015
20
20.522838
0
VERTEX
8
GEAR_1
10
-9.713714
20
20.448945
0
VERTEX
8
GEAR_1
10
-9.672205
20
20.373248
0
VERTEX
8
GEAR_1
10
-9.559345
20
20.135523
0
VERTEX
8
GEAR_1
10
-9.446484
20
19.897797
0
VERTEX
8
GEAR_1
10
-9.333624
20
19.660072
0
VERTEX
8
GEAR_1
10
-9.220764
20
19.422346
0
VERTEX
8
GEAR_1
10
-10.032900
20
19.015544
0
VERTEX
8
GEAR_1
10
-10.827129
20
18.574802
0
VERTEX
8
GEAR_1
10
-11.602033
20
18.100907
0
VERTEX
8
GEAR_1
10
-12.356229
20
17.594704
0
VERTEX
8
GEAR_1
10
-13.088371
20
17.057097
0
VERTEX
8
GEAR_1
10
-13.797152
20
16.489045
0
VERTEX
8
GEAR_1
10
-14.481306
20
15.891563
0
VERTEX
8
GEAR_1
10
-15.139614
20
15.265716
0
VERTEX
8
GEAR_1
10
-15.770900
20
14.612622
0
VERTEX
8
GEAR_1
10
-16.374036
20
13.933447
0
VERTEX
8
GEAR_1
10
-16.574451
20
14.103989
0
VERTEX
8
GEAR_1
10
-16.774866
20
14.274532
0
VERTEX
8
GEAR_1
10
-16.975281
20
14.445075
0
VERTEX
8
GEAR_1
10
-17.175696
20
14.615617
0
VERTEX
8
GEAR_1
10
-17.238070
20
14.675304
0
VERTEX
8
GEAR_1
10
-17.297720
20
14.738186
0
VERTEX
8
GEAR_1
10
-17.355573
20
14.803170
0
VERTEX
8
GEAR_1
10
-17.411955
20
14.869867
0
VERTEX
8
GEAR_1
10
-17.467050
20
14.938056
0
VERTEX
8
GEAR_1
10
-17.520981
20
15.007586
0
VERTEX
8
GEAR_1
10
-17.573836
20
15.078350
0
VERTEX
8
GEAR_1
10
-17.625683
20
15.150262
0
VERTEX
8
GEAR_1
10
-17.676574
20
15.223256
0
VERTEX
8
GEAR_1
10
-17.726552
20
15.297276
0
VERTEX
8
GEAR_1
10
-17.775652
20
15.372274
0
VERTEX
8
GEAR_1
10
-17.823905
20
15.448212
0
VERTEX
8
GEAR_1
10
-17.871335
20
15.525053
0
VERTEX
8
GEAR_1
10
-17.917965
20
15.602767
0
VERTEX
8
GEAR_1
10
-17.963813
20
15.681327
0
VERTEX
8
GEAR_1
10
-18.008897
20
15.760706
0
VERTEX
8
GEAR_1
10
-18.053229
20
15.840884
0
VERTEX
8
GEAR_1
10
-18.096824
20
15.921840
0
VERTEX
8
GEAR_1
10
-18.139693
20
16.003555
0
VERTEX
8
GEAR_1
10
-18.181846
20
16.086011
0
VERTEX
8
GEAR_1
10
-18.223292
20
16.169194
0
VERTEX
8
GEAR_1
10
-18.264040
20
16.253087
0
VERTEX
8
GEAR_1
10
-18.304096
20
16.337676
0
VERTEX
8
GEAR_1
10
-18.343467
20
16.422950
0
VERTEX
8
GEAR_1
10
-18.382159
20
16.508895
0
VERTEX
8
GEAR_1
10
-18.420178
20
16.595500
0
VERTEX
8
GEAR_1
10
-18.457528
20
16.682754
0
VERTEX
8
GEAR_1
10
-18.494213
20
16.770647
0
VERTEX
8
GEAR_1
10
-18.530238
20
16.859168
0
VERTEX
8
GEAR_1
10
-18.565607
20
16.948307
0
VERTEX
8
GEAR_1
10
-18.600321
20
17.038057
0
VERTEX
8
GEAR_1
10
-18.634385
20
17.128408
0
VERTEX
8
GEAR_1
10
-18.667801
20
17.219351
0
VERTEX
8
GEAR_1
10
-18.700570
20
17.310879
0
VERTEX
8
GEAR_1
10
-18.732696
20
17.402984
0
VERTEX
8
GEAR_1
10
-18.764179
20
17.495658
0
VERTEX
8
GEAR_1
10
-18.795022
20
17.588895
0
VERTEX
8
GEAR_1
10
-18.825226
20
17.682686
0
VERTEX
8
GEAR_1
10
-18.854792
20
17.777026
0
VERTEX
8
GEAR_1
10
-18.883721
20
17.871908
0
VERTEX
8
GEAR_1
10
-18.760311
20
18.001409
0
VERTEX
8
GEAR_1
10
-18.636013
20
18.130058
0
VERTEX
8
GEAR_1
10
-18.510833
20
18.257850
0
VERTEX
8
GEAR_1
10
-18.384776
20
18.384776
0
VERTEX
8
GEAR_1
10
-18.257850
20
18.510833
0
VERTEX
8
GEAR_1
10
-18.130058
20
18.636013
0
VERTEX
8
GEAR_1
10
-18.001409
20
18.760311
0
VERTEX
8
GEAR_1
10
-17.871908
20
18.883721
0
VERTEX
8
GEAR_1
10
-17.777026
20
18.854792
0
VERTEX
8
GEAR_1
10
-17.682686
20
18.825226
0
VERTEX
8
GEAR_1
10
-17.588895
20
18.795022
0
VERTEX
8
GEAR_1
10
-17.495658
20
18.764179
0
VERTEX
8
GEAR_1
10
-17.402984
20
18.732696
0
VERTEX
8
GEAR_1
10
-17.310879
20
18.700570
0
VERTEX
8
GEAR_1
10
-17.219351
20
18.667801
0
VERTEX
8
GEAR_1
10
-17.128408
20
18.634385
0
VERTEX
8
GEAR_1
10
-17.038057
20
18.600321
0
VERTEX
8
GEAR_1
10
-16.948307
20
18.565607
0
VERTEX
8
GEAR_1
10
-16.859168
20
18.530238
0
VERTEX
8
GEAR_1
10
-16.770647
20
18.494213
0
VERTEX
8
GEAR_1
10
-16.682754
20
18.457528
0
VERTEX
8
GEAR_1
10
-16.595500
20
18.420178
0
VERTEX
8
GEAR_1
10
-16.508895
20
18.382159
0
VERTEX
8
GEAR_1
10
-16.422950
20
18.343467
0
VERTEX
8
GEAR_1
10
-16.337676
20
18.304096
0
VERTEX
8
GEAR_1
10
-16.253087
20
18.264040
0
VERTEX
8
GEAR_1
10
-16.169194
20
18.223292
0
VERTEX
8
GEAR_1
10
-16.086011
20
18.181846
0
VERTEX
8
GEAR_1
10
-16.003555
20
18.139693
0
VERTEX
8
GEAR_1
10
-15.921840
20
18.096824
0
VERTEX
8
GEAR_1
10
-15.840884
20
18.053229
0
VERTEX
8
GEAR_1
10
-15.760706
20
18.008897
0
VERTEX
8
GEAR_1
10
-15.681327
20
17.963813
0
VERTEX
8
GEAR_1
10
-15.602767
20
17.917965
0
VERTEX
8
GEAR_1
10
-15.525053
20
17.871335
0
VERTEX
8
GEAR_1
10
-15.448212
20
17.823905
0
VERTEX
8
GEAR_1
10
-15.372274
20
17.775652
0
VERTEX
8
GEAR_1
10
-15.297276
20
17.726552
0
VERTEX
8
GEAR_1
10
-15.223256
20
17.676574
0
VERTEX
8
GEAR_1
10
-15.150262
20
17.625683
0
VERTEX
8
GEAR_1
10
-15.078350
20
17.573836
0
VERTEX
8
GEAR_1
10
-15.007586
20
17.520981
0
VERTEX
8
GEAR_1
10
-14.938056
20
17.467050
0
VERTEX
8
GEAR_1
10
-14.869867
20
17.411955
0
VERTEX
8
GEAR_1
10
-14.803170
20
17.355573
0
VERTEX
8
GEAR_1
10
-14.738186
20
17.297720
0
VERTEX
8
GEAR_1
10
-14.675304
20
17.238070
0
VERTEX
8
GEAR_1
10
-14.615617
20
17.175696
0
VERTEX
8
GEAR_1
10
-14.445075
20
16.975281
0
VERTEX
8
GEAR_1
10
-14.274532
20
16.774866
0
VERTEX
8
GEAR_1
10
-14.103989
20
16.574451
0
VERTEX
8
GEAR_1
10
-13.933447
20
16.374036
0
VERTEX
8
GEAR_1
10
-14.612622
20
15.770900
0
VERTEX
8
GEAR_1
10
-15.265716
20
15.139614
0
VERTEX
8
GEAR_1
10
-15.891563
20
14.481306
0
VERTEX
8
GEAR_1
10
-16.489045
20
13.797152
0
VERTEX
8
GEAR_1
10
-17.057097
20
13.088371
0
VERTEX
8
GEAR_1
10
-17.594704
20
12.356229
0
VERTEX
8
GEAR_1
10
-18.100907
20
11.602033
0
VERTEX
8
GEAR_1
10
-18.574802
20
10.827129
0
VERTEX
8
GEAR_1
10
-19.015544
20
10.032900
0
VERTEX
8
GEAR_1
10
-19.422346
20
9.220764
0
VERTEX
8
GEAR_1
10
-19.660072
20
9.333624
0
VERTEX
8
GEAR_1
10
-19.897797
20
9.446484
0
VERTEX
8
GEAR_1
10
-20.135523
20
9.559345
0
VERTEX
8
GEAR_1
10
-20.373248
20
9.672205
0
VERTEX
8
GEAR_1
10
-20.448945
20
9.713714
0
VERTEX
8
GEAR_1
10
-20.522838
20
9.759015
0
VERTEX
8
GEAR_1
10
-20.595539
20
9.806811
0
VERTEX
8
GEAR_1
10
-20.667262
20
9.856643
0
VERTEX
8
GEAR_1
10
-20.738128
20
9.908249
0
VERTEX
8
GEAR_1
10
-20.808217
20
9.961451
0
VERTEX
8
GEAR_1
10
-20.877586
20
10.016124
0
VERTEX
8
GEAR_1
10
-20.946279
20
10.072167
0
VERTEX
8
GEAR_1
10
-21.014328
20
10.129502
0
VERTEX
8
GEAR_1
10
-21.081760
20
10.188064
0
VERTEX
8
GEAR_1
10
-21.148599
20
10.247800
0
VERTEX
8
GEAR_1
10
-21.214861
20
10.308661
0
VERTEX
8
GEAR_1
10
-21.280564
20
10.370608
0
VERTEX
8
GEAR_1
10
-21.345719
20
10.433605
0
VERTEX
8
GEAR_1
10
-21.410337
20
10.497621
0
VERTEX
8
GEAR_1
10
-21.474429
20
10.562628
0
VERTEX
8
GEAR_1
10
-21.538003
20
10.628600
0
VERTEX
8
GEAR_1
10
-21.601066
20
10.695514
0
VERTEX
8
GEAR_1
10
-21.663623
20
10.763349
0
VERTEX
8
GEAR_1
10
-21.725681
20
10.832086
0
VERTEX
8
GEAR_1
10
-21.787244
20
10.901706
0
VERTEX
8
GEAR_1
10
-21.848316
20
10.972195
0
VERTEX
8
GEAR_1
10
-21.908900
20
11.043535
0
VERTEX
8
GEAR_1
10
-21.969000
20
11.115713
0
VERTEX
8
GEAR_1
10
-22.028619
20
11.188716
0
VERTEX
8
GEAR_1
10
-22.087757
20
11.262530
0
VERTEX
8
GEAR_1
10
-22.146417
20
11.337144
0
VERTEX
8
GEAR_1
10
-22.204601
20
11.412546
0
VERTEX
8
GEAR_1
10
-22.262309
20
11.488727
0
VERTEX
8
GEAR_1
10
-22.319544
20
11.565675
0
VERTEX
8
GEAR_1
10
-22.376304
20
11.643382
0
VERTEX
8
GEAR_1
10
-22.432592
20
11.721838
0
VERTEX
8
GEAR_1
10
-22.488407
20
11.801034
0
VERTEX
8
GEAR_1
10
-22.543749
20
11.880962
0
VERTEX
8
GEAR_1
10
-22.598618
20
11.961613
0
VERTEX
8
GEAR_1
10
-22.653015
20
12.042981
0
VERTEX
8
GEAR_1
10
-22.706938
20
12.125058
0
VERTEX
8
GEAR_1
10
-22.760388
20
12.207837
0
VERTEX
8
GEAR_1
10
-22.813363
20
12.291310
0
VERTEX
8
GEAR_1
10
-22.865864
20
12.375470
0
VERTEX
8
GEAR_1
10
-22.780176
20
12.532500
0
VERTEX
8
GEAR_1
10
-22.693411
20
12.688937
0
VERTEX
8
GEAR_1
10
-22.605571
20
12.844772
0
VERTEX
8
GEAR_1
10
-22.516660
20
13.000000
0
VERTEX
8
GEAR_1
10
-22.426684
20
13.154612
0
VERTEX
8
GEAR_1
10
-22.335647
20
13.308602
0
VERTEX
8
GEAR_1
10
-22.243552
20
13.461961
0
VERTEX
8
GEAR_1
10
-22.150404
20
13.614684
0
VERTEX
8
GEAR_1
10
-22.051268
20
13.611297
0
VERTEX
8
GEAR_1
10
-21.952491
20
13.607156
0
VERTEX
8
GEAR_1
10
-21.854078
20
13.602256
0
VERTEX
8
GEAR_1
10
-21.756035
20
13.596596
0
VERTEX
8
GEAR_1
10
-21.658370
20
13.590171
0
VERTEX
8
GEAR_1
10
-21.561089
20
13.582978
0
VERTEX
8
GEAR_1
10
-21.464198
20
13.575015
0
VERTEX
8
GEAR_1
10
-21.367705
20
13.566276
0
VERTEX
8
GEAR_1
10
-21.271617
20
13.556757
0
VERTEX
8
GEAR_1
10
-21.175940
20
13.546454
0
VERTEX
8
GEAR_1
10
-21.080684
20
13.535362
0
VERTEX
8
GEAR_1
10
-20.985855
20
13.523475
0
VERTEX
8
GEAR_1
10
-20.891463
20
13.510788
0
VERTEX
8
GEAR_1
10
-20.797515
20
13.497294
0
VERTEX
8
GEAR_1
10
-20.704021
20
13.482985
0
VERTEX
8
GEAR_1
10
-20.610990
20
13.467856
0
VERTEX
8
GEAR_1
10
-20.518432
20
13.451897
0
VERTEX
8
GEAR_1
10
-20.426357
20
13.435099
0
VERTEX
8
GEAR_1
10
-20.334777
20
13.417454
0
VERTEX
8
GEAR_1
10
-20.243702
20
13.398949
0
VERTEX
8
GEAR_1
10
-20.153145
20
13.379574
0
VERTEX
8
GEAR_1
10
-20.063119
20
13.359315
0
VERTEX
8
GEAR_1
10
-19.973639
20
13.338158
0
VERTEX
8
GEAR_1
10
-19.884719
20
13.316087
0
VERTEX
8
GEAR_1
10
-19.796375
20
13.293085
0
VERTEX
8
GEAR_1
10
-19.708626
20
13.269132
0
VERTEX
8
GEAR_1
10
-19.621492
20
13.244205
0
VERTEX
8
GEAR_1
10
-19.534993
20
13.218278
0
VERTEX
8
GEAR_1
10
-19.449154
20
13.191324
0
VERTEX
8
GEAR_1
10
-19.364003
20
13.163308
0
VERTEX
8
GEAR_1
10
-19.279570
20
13.134191
0
VERTEX
8
GEAR_1
10
-19.195892
20
13.103926
0
VERTEX
8
GEAR_1
10
-19.113011
20
13.072458
0
VERTEX
8
GEAR_1
10
-19.030979
20
13.039719
0
VERTEX
8
GEAR_1
10
-18.949859
20
13.005621
0
VERTEX
8
GEAR_1
10
-18.869734
20
12.970052
0
VERTEX
8
GEAR_1
10
-18.790717
20
12.932854
0
VERTEX
8
GEAR_1
10
-18.712974
20
12.893791
0
VERTEX
8
GEAR_1
10
-18.636796
20
12.852449
0
VERTEX
8
GEAR_1
10
-18.562999
20
12.807648
0
VERTEX
8
GEAR_1
10
-18.346397
20
12.658202
0
VERTEX
8
GEAR_1
10
-18.129794
20
12.508756
0
VERTEX
8
GEAR_1
10
-17.913191
20
12.359309
0
VERTEX
8
GEAR_1
10
-17.696588
20
12.209863
0
VERTEX
8
GEAR_1
10
-18.196518
20
11.451494
0
VERTEX
8
GEAR_1
10
-18.663970
20
10.672686
0
VERTEX
8
GEAR_1
10
-19.098109
20
9.874829
0
VERTEX
8
GEAR_1
10
-19.498160
20
9.059346
0
VERTEX
8
GEAR_1
10
-19.863410
20
8.227694
0
VERTEX
8
GEAR_1
10
-20.193206
20
7.381356
0
VERTEX
8
GEAR_1
10
-20.486961
20
6.521844
0
VERTEX
8
GEAR_1
10
-20.744148
20
5.650691
0
VERTEX
8
GEAR_1
10
-20.964311
20
4.769452
0
VERTEX
8
GEAR_1
10
-21.147055
20
3.879701
0
VERTEX
8
GEAR_1
10
-21.405890
20
3.927187
0
VERTEX
8
GEAR_1
10
-21.664726
20
3.974674
0
VERTEX
8
GEAR_1
10
-21.923562
20
4.022161
0
VERTEX
8
GEAR_1
10
-22.182398
20
4.069648
0
VERTEX
8
GEAR_1
10
-22.266258
20
4.090151
0
VERTEX
8
GEAR_1
10
-22.349358
20
4.114784
0
VERTEX
8
GEAR_1
10
-22.431952
20
4.142135
0
VERTEX
8
GEAR_1
10
-22.514129
20
4.171705
0
VERTEX
8
GEAR_1
10
-22.595937
20
4.203211
0
VERTEX
8
GEAR_1
10
-22.677408
20
4.236460
0
VERTEX
8
GEAR_1
10
-22.758563
20
4.271316
0
VERTEX
8
GEAR_1
10
-22.839420
20
4.307670
0
VERTEX
8
GEAR_1
10
-22.919990
20
4.345439
0
VERTEX
8
GEAR_1
10
-23.000282
20
4.384554
0
VERTEX
8
GEAR_1
10
-23.080303
20
4.424954
0
VERTEX
8
GEAR_1
10
-23.160060
20
4.466592
0
VERTEX
8
GEAR_1
10
-23.239557
20
4.509423
0
VERTEX
8
GEAR_1
10
-23.318797
20
4.553410
0
VERTEX
8
GEAR_1
10
-23.397782
20
4.598520
0
VERTEX
8
GEAR_1
10
-23.476515
20
4.644724
0
VERTEX
8
GEAR_1
10
-23.554997
20
4.691994
0
VERTEX
8
GEAR_1
10
-23.633230
20
4.740306
0
VERTEX
8
GEAR_1
10
-23.711213
20
4.789638
0
VERTEX
8
GEAR_1
10
-23.788947
20
4.839971
0
VERTEX
8
GEAR_1
10
-23.866431
20
4.891286
0
VERTEX
8
GEAR_1
10
-23.943666
20
4.943566
0
VERTEX
8
GEAR_1
10
-24.020650
20
4.996795
0
VERTEX
8
GEAR_1
10
-24.097383
20
5.050959
0
VERTEX
8
GEAR_1
10
-24.173864
20
5.106043
0
VERTEX
8
GEAR_1
10
-24.250092
20
5.162036
0
VERTEX
8
GEAR_1
10
-24.326065
20
5.218925
0
VERTEX
8
GEAR_1
10
-24.401782
20
5.276700
0
VERTEX
8
GEAR_1
10
-24.477241
20
5.335348
0
VERTEX
8
GEAR_1
10
-24.552441
20
5.394861
0
VERTEX
8
GEAR_1
10
-24.627379
20
5.455230
0
VERTEX
8
GEAR_1
10
-24.702055
20
5.516444
0
VERTEX
8
GEAR_1
10
-24.776465
20
5.578495
0
VERTEX
8
GEAR_1
10
-24.850608
20
5.641376
0
VERTEX
8
GEAR_1
10
-24.924482
20
5.705079
0
VERTEX
8
GEAR_1
10
-24.998085
20
5.769595
0
VERTEX
8
GEAR_1
10
-25.071414
20
5.834919
0
VERTEX
8
GEAR_1
10
-25.144467
20
5.901043
0
VERTEX
8
GEAR_1
10
-25.217242
20
5.967960
0
VERTEX
8
GEAR_1
10
-25.289736
20
6.035666
0
VERTEX
8
GEAR_1
10
-25.247610
20
6.209522
0
VERTEX
8
GEAR_1
10
-25.204290
20
6.383085
0
VERTEX
8
GEAR_1
10
-25.159776
20
6.556345
0
VERTEX
8
GEAR_1
10
-25.114071
20
6.729295
0
VERTEX
8
GEAR_1
10
-25.067178
20
6.901927
0
VERTEX
8
GEAR_1
10
-25.019098
20
7.074231
0
VERTEX
8
GEAR_1
10
-24.969833
20
7.246201
0
VERTEX
8
GEAR_1
10
-24.919386
20
7.417828
0
VERTEX
8
GEAR_1
10
-24.822752
20
7.440216
0
VERTEX
8
GEAR_1
10
-24.726269
20
7.461781
0
VERTEX
8
GEAR_1
10
-24.629941
20
7.482519
0
VERTEX
8
GEAR_1
10
-24.533774
20
7.502427
0
VERTEX
8
GEAR_1
10
-24.437774
20
7.521498
0
VERTEX
8
GEAR_1
10
-24.341946
20
7.539729
0
VERTEX
8
GEAR_1
10
-24.246296
20
7.557114
0
VERTEX
8
GEAR_1
10
-24.150829
20
7.573647
0
VERTEX
8
GEAR_1
10
-24.055551
20
7.589322
0
VERTEX
8
GEAR_1
10
-23.960468
20
7.604133
0
VERTEX
8
GEAR_1
10
-23.865587
20
7.618073
0
VERTEX
8
GEAR_1
10
-23.770913
20
7.631135
0
VERTEX
8
GEAR_1
10
-23.676453
20
7.643311
0
VERTEX
8
GEAR_1
10
-23.582214
20
7.654591
0
VERTEX
8
GEAR_1
10
-23.488202
20
7.664969
0
VERTEX
8
GEAR_1
10
-23.394425
20
7.674433
0
VERTEX
8
GEAR_1
10
-23.300891
20
7.682974
0
VERTEX
8
GEAR_1
10
-23.207606
20
7.690579
0
VERTEX
8
GEAR_1
10
-23.114579
20
7.697237
0
VERTEX
8
GEAR_1
10
-23.021818
20
7.702935
0
VERTEX
8
GEAR_1
10
-22.929332
20
7.707658
0
VERTEX
8
GEAR_1
10
-22.837130
20
7.711390
0
VERTEX
8
GEAR_1
10
-22.745223
20
7.714113
0
VERTEX
8
GEAR_1
10
-22.653620
20
7.715809
0
VERTEX
8
GEAR_1
10
-22.562334
20
7.716455
0
VERTEX
8
GEAR_1
10
-22.471375
20
7.716029
0
VERTEX
8
GEAR_1
10
-22.380758
20
7.714504
0
VERTEX
8
GEAR_1
10
-22.290496
20
7.711848
0
VERTEX
8
GEAR_1
10
-22.200606
20
7.708029
0
VERTEX
8
GEAR_1
10
-22.111105
20
7.703006
0
VERTEX
8
GEAR_1
10
-22.022013
20
7.696734
0
VERTEX
8
GEAR_1
10
-21.933353
20
7.689158
0
VERTEX
8
GEAR_1
10
-21.845152
20
7.680214
0
VERTEX
8
GEAR_1
10
-21.757441
20
7.669822
0
VERTEX
8
GEAR_1
10
-21.670261
20
7.657881
0
VERTEX
8
GEAR_1
10
-21.583660
20
7.644262
0
VERTEX
8
GEAR_1
10
-21.497708
20
7.628782
0
VERTEX
8
GEAR_1
10
-21.412504
20
7.611172
0
VERTEX
8
GEAR_1
10
-21.328221
20
7.590955
0
VERTEX
8
GEAR_1
10
-21.245344
20
7.566781
0
VERTEX
8
GEAR_1
10
-20.997442
20
7.478487
0
VERTEX
8
GEAR_1
10
-20.749540
20
7.390194
0
VERTEX
8
GEAR_1
10
-20.501639
20
7.301901
0
VERTEX
8
GEAR_1
10
-20.253737
20
7.213608
0
VERTEX
8
GEAR_1
10
-20.540352
20
6.351689
0
VERTEX
8
GEAR_1
10
-20.790305
20
5.478432
0
VERTEX
8
GEAR_1
10
-21.003150
20
4.595398
0
VERTEX
8
GEAR_1
10
-21.178508
20
3.704161
0
VERTEX
8
GEAR_1
10
-21.316065
20
2.806313
0
VERTEX
8
GEAR_1
10
-21.415575
20
1.903456
0
VERTEX
8
GEAR_1
10
-21.476862
20
0.997202
0
VERTEX
8
GEAR_1
10
-21.499815
20
0.089168
0
VERTEX
8
GEAR_1
10
-21.484394
20
-0.819026
0
VERTEX
8
GEAR_1
10
-21.430627
20
-1.725757
0
VERTEX
8
GEAR_1
10
-21.692933
20
-1.746880
0
VERTEX
8
GEAR_1
10
-21.955240
20
-1.768003
0
VERTEX
8
GEAR_1
10
-22.217547
20
-1.789126
0
VERTEX
8
GEAR_1
10
-22.479853
20
-1.810249
0
VERTEX
8
GEAR_1
10
-22.566163
20
-1.812150
0
VERTEX
8
GEAR_1
10
-22.652807
20
-1.809864
0
VERTEX
8
GEAR_1
10
-22.739665
20
-1.804821
0
VERTEX
8
GEAR_1
10
-22.826695
20
-1.797527
0
VERTEX
8
GEAR_1
10
-22.913870
20
-1.788269
0
VERTEX
8
GEAR_1
10
-23.001170
20
-1.777239
0
VERTEX
8
GEAR_1
10
-23.088582
20
-1.764576
0
VERTEX
8
GEAR_1
10
-23.176093
20
-1.750387
0
VERTEX
8
GEAR_1
10
-23.263693
20
-1.734758
0
VERTEX
8
GEAR_1
10
-23.351372
20
-1.717757
0
VERTEX
8
GEAR_1
10
-23.439124
20
-1.699445
0
VERTEX
8
GEAR_1
10
-23.526939
20
-1.679868
0
VERTEX
8
GEAR_1
10
-23.614813
20
-1.659072
0
VERTEX
8
GEAR_1
10
-23.702737
20
-1.637092
0
VERTEX
8
GEAR_1
10
-23.790707
20
-1.613962
0
VERTEX
8
GEAR_1
10
-23.878715
20
-1.589711
0
VERTEX
8
GEAR_1
10
-23.966758
20
-1.564364
0
VERTEX
8
GEAR_1
10
-24.054828
20
-1.537946
0
VERTEX
8
GEAR_1
10
-24.142922
20
-1.510478
0
VERTEX
8
GEAR_1
10
-24.231035
20
-1.481979
0
VERTEX
8
GEAR_1
10
-24.319160
20
-1.452467
0
VERTEX
8
GEAR_1
10
-24.407294
20
-1.421959
0
VERTEX
8
GEAR_1
10
-24.495432
20
-1.390468
0
VERTEX
8
GEAR_1
10
-24.583569
20
-1.358010
0
VERTEX
8
GEAR_1
10
-24.671701
20
-1.324597
0
VERTEX
8
GEAR_1
10
-24.759823
20
-1.290242
0
VERTEX
8
GEAR_1
10
-24.847932
20
-1.254954
0
VERTEX
8
GEAR_1
10
-24.936022
20
-1.218745
0
VERTEX
8
GEAR_1
10
-25.024089
20
-1.181625
0
VERTEX
8
GEAR_1
10
-25.112129
20
-1.143603
0
VERTEX
8
GEAR_1
10
-25.200139
20
-1.104688
0
VERTEX
8
GEAR_1
10
-25.288113
20
-1.064887
0
VERTEX
8
GEAR_1
10
-25.376048
20
-1.024208
0
VERTEX
8
GEAR_1
10
-25.463940
20
-0.982660
0
VERTEX
8
GEAR_1
10
-25.551784
20
-0.940248
0
VERTEX
8
GEAR_1
10
-25.639577
20
-0.896980
0
VERTEX
8
GEAR_1
10
-25.727314
20
-0.852861
0
VERTEX
8
GEAR_1
10
-25.814992
20
-0.807897
0
VERTEX
8
GEAR_1
10
-25.902607
20
-0.762095
0
VERTEX
8
GEAR_1
10
-25.990154
20
-0.715460
0
VERTEX
8
GEAR_1
10
-25.994462
20
-0.536625
0
VERTEX
8
GEAR_1
10
-25.997538
20
-0.357764
0
VERTEX
8
GEAR_1
10
-25.999385
20
-0.178886
0
VERTEX
8
GEAR_1
10
-26.000000
20
0.000000
0
VERTEX
8
GEAR_1
10
-25.999385
20
0.178886
0
VERTEX
8
GEAR_1
10
-25.997538
20
0.357764
0
VERTEX
8
GEAR_1
10
-25.994462
20
0.536625
0
VERTEX
8
GEAR_1
10
-25.990154
20
0.715460
0
VERTEX
8
GEAR_1
10
-25.902607
20
0.762095
0
VERTEX
8
GEAR_1
10
-25.814992
20
0.807897
0
VERTEX
8
GEAR_1
10
-25.727314
20
0.852861
0
VERTEX
8
GEAR_1
10
-25.639577
20
0.896980
0
VERTEX
8
GEAR_1
10
-25.551784
20
0.940248
0
VERTEX
8
GEAR_1
10
-25.463940
20
0.982660
0
VERTEX
8
GEAR_1
10
-25.376048
20
1.024208
0
VERTEX
8
GEAR_1
10
-25.288113
20
1.064887
0
VERTEX
8
GEAR_1
10
-25.200139
20
1.104688
0
VERTEX
8
GEAR_1
10
-25.112129
20
1.143603
0
VERTEX
8
GEAR_1
10
-25.024089
20
1.181625
0
VERTEX
8
GEAR_1
10
-24.936022
20
1.218745
0
VERTEX
8
GEAR_1
10
-24.847932
20
1.254954
0
VERTEX
8
GEAR_1
10
-24.759823
20
1.290242
0
VERTEX
8
GEAR_1
10
-24.671701
20
1.324597
0
VERTEX
8
GEAR_1
10
-24.583569
20
1.358010
0
VERTEX
8
GEAR_1
10
-24.495432
20
1.390468
0
VERTEX
8
GEAR_1
10
-24.407294
20
1.421959
0
VERTEX
8
GEAR_1
10
-24.319160
20
1.452467
0
VERTEX
8
GEAR_1
10
-24.231035
20
1.481979
0
VERTEX
8
GEAR_1
10
-24.142922
20
1.510478
0
VERTEX
8
GEAR_1
10
-24.054828
20
1.537946
0
VERTEX
8
GEAR_1
10
-23.966758
20
1.564364
0
VERTEX
8
GEAR_1
10
-23.878715
20
1.589711
0
VERTEX
8
GEAR_1
10
-23.790707
20
1.613962
0
VERTEX
8
GEAR_1
10
-23.702737
20
1.637092
0
VERTEX
8
GEAR_1
10
-23.614813
20
1.659072
0
VERTEX
8
GEAR_1
10
-23.526939
20
1.679868
0
VERTEX
8
GEAR_1
10
-23.439124
20
1.699445
0
VERTEX
8
GEAR_1
10
-23.351372
20
1.717757
0
VERTEX
8
GEAR_1
10
-23.263693
20
1.734758
0
VERTEX
8
GEAR_1
10
-23.176093
20
1.750387
0
VERTEX
8
GEAR_1
10
-23.088582
20
1.764576
0
VERTEX
8
GEAR_1
10
-23.001170
20
1.777239
0
VERTEX
8
GEAR_1
10
-22.913870
20
1.788269
0
VERTEX
8
GEAR_1
10
-22.826695
20
1.797527
0
VERTEX
8
GEAR_1
10
-22.739665
20
1.804821
0
VERTEX
8
GEAR_1
10
-22.652807
20
1.809864
0
VERTEX
8
GEAR_1
10
-22.566163
20
1.812150
0
VERTEX
8
GEAR_1
10
-22.479853
20
1.810249
0
VERTEX
8
GEAR_1
10
-22.217547
20
1.789126
0
VERTEX
8
GEAR_1
10
-21.955240
20
1.768003
0
VERTEX
8
GEAR_1
10
-21.692933
20
1.746880
0
VERTEX
8
GEAR_1
10
-21.430627
20
1.725757
0
VERTEX
8
GEAR_1
10
-21.484394
20
0.819026
0
VERTEX
8
GEAR_1
10
-21.499815
20
-0.089168
0
VERTEX
8
GEAR_1
10
-21.476862
20
-0.997202
0
VERTEX
8
GEAR_1
10
-21.415575
20
-1.903456
0
VERTEX
8
GEAR_1
10
-21.316065
20
-2.806313
0
VERTEX
8
GEAR_1
10
-21.178508
20
-3.704161
0
VERTEX
8
GEAR_1
10
-21.003150
20
-4.595398
0
VERTEX
8
GEAR_1
10
-20.790305
20
-5.478432
0
VERTEX
8
GEAR_1
10
-20.540352
20
-6.351689
0
VERTEX
8
GEAR_1
10
-20.253737
20
-7.213608
0
VERTEX
8
GEAR_1
10
-20.501639
20
-7.301901
0
VERTEX
8
GEAR_1
10
-20.749540
20
-7.390194
0
VERTEX
8
GEAR_1
10
-20.997442
20
-7.478487
0
VERTEX
8
GEAR_1
10
-21.245344
20
-7.566781
0
VERTEX
8
GEAR_1
10
-21.328221
20
-7.590955
0
VERTEX
8
GEAR_1
10
-21.412504
20
-7.611172
0
VERTEX
8
GEAR_1
10
-21.497708
20
-7.628782
0
VERTEX
8
GEAR_1
10
-21.583660
20
-7.644262
0
VERTEX
8
GEAR_1
10
-21.670261
20
-7.657881
0
VERTEX
8
GEAR_1
10
-21.757441
20
-7.669822
0
VERTEX
8
GEAR_1
10
-21.845152
20
-7.680214
0
VERTEX
8
GEAR_1
10
-21.933353
20
-7.689158
0
VERTEX
8
GEAR_1
10
-22.022013
20
-7.696734
0
VERTEX
8
GEAR_1
10
-22.111105
20
-7.703006
0
VERTEX
8
GEAR_1
10
-22.200606
20
-7.708029
0
VERTEX
8
GEAR_1
10
-22.290496
20
-7.711848
0
VERTEX
8
GEAR_1
10
-22.380758
20
-7.714504
0
VERTEX
8
GEAR_1
10
-22.471375
20
-7.716029
0
VERTEX
8
GEAR_1
10
-22.562334
20
-7.716455
0
VERTEX
8
GEAR_1
10
-22.653620
20
-7.715809
0
VERTEX
8
GEAR_1
10
-22.745223
20
-7.714113
0
VERTEX
8
GEAR_1
10
-22.837130
20
-7.711390
0
VERTEX
8
GEAR_1
10
-22.929332
20
-7.707658
0
VERTEX
8
GEAR_1
10
-23.021818
20
-7.702935
0
VERTEX
8
GEAR_1
10
-23.114579
20
-7.697237
0
VERTEX
8
GEAR_1
10
-23.207606
20
-7.690579
0
VERTEX
8
GEAR_1
10
-23.300891
20
-7.682974
0
VERTEX
8
GEAR_1
10
-23.394425
20
-7.674433
0
VERTEX
8
GEAR_1
10
-23.488202
20
-7.664969
0
VERTEX
8
GEAR_1
10
-23.582214
20
-7.654591
0
VERTEX
8
GEAR_1
10
-23.676453
20
-7.643311
0
VERTEX
8
GEAR_1
10
-23.770913
20
-7.631135
0
VERTEX
8
GEAR_1
10
-23.865587
20
-7.618073
0
VERTEX
8
GEAR_1
10
-23.960468
20
-7.604133
0
VERTEX
8
GEAR_1
10
-24.055551
20
-7.589322
0
VERTEX
8
GEAR_1
10
-24.150829
20
-7.573647
0
VERTEX
8
GEAR_1
10
-24.246296
20
-7.557114
0
VERTEX
8
GEAR_1
10
-24.341946
20
-7.539729
0
VERTEX
8
GEAR_1
10
-24.437774
20
-7.521498
0
VERTEX
8
GEAR_1
10
-24.533774
20
-7.502427
0
VERTEX
8
GEAR_1
10
-24.629941
20
-7.482519
0
VERTEX
8
GEAR_1
10
-24.726269
20
-7.461781
0
VERTEX
8
GEAR_1
10
-24.822752
20
-7.440216
0
VERTEX
8
GEAR_1
10
-24.919386
20
-7.417828
0
VERTEX
8
GEAR_1
10
-24.969833
20
-7.246201
0
VERTEX
8
GEAR_1
10
-25.019098
20
-7.074231
0
VERTEX
8
GEAR_1
10
-25.067178
20
-6.901927
0
VERTEX
8
GEAR_1
10
-25.114071
20
-6.729295
0
VERTEX
8
GEAR_1
10
-25.159776
20
-6.556345
0
VERTEX
8
GEAR_1
10
-25.204290
20
-6.383085
0
VERTEX
8
GEAR_1
10
-25.247610
20
-6.209522
0
VERTEX
8
GEAR_1
10
-25.289736
20
-6.035666
0
VERTEX
8
GEAR_1
10
-25.217242
20
-5.967960
0
VERTEX
8
GEAR_1
10
-25.144467
20
-5.901043
0
VERTEX
8
GEAR_1
10
-25.071414
20
-5.834919
0
VERTEX
8
GEAR_1
10
-24.998085
20
-5.769595
0
VERTEX
8
GEAR_1
10
-24.924482
20
-5.705079
0
VERTEX
8
GEAR_1
10
-24.850608
20
-5.641376
0
VERTEX
8
GEAR_1
10
-24.776465
20
-5.578495
0
VERTEX
8
GEAR_1
10
-24.702055
20
-5.516444
0
VERTEX
8
GEAR_1
10
-24.627379
20
-5.455230
0
VERTEX
8
GEAR_1
10
-24.552441
20
-5.394861
0
VERTEX
8
GEAR_1
10
-24.477241
20
-5.335348
0
VERTEX
8
GEAR_1
10
-24.401782
20
-5.276700
0
VERTEX
8
GEAR_1
10
-24.326065
20
-5.218925
0
VERTEX
8
GEAR_1
10
-24.250092
20
-5.162036
0
VERTEX
8
GEAR_1
10
-24.173864
20
-5.106043
0
VERTEX
8
GEAR_1
10
-24.097383
20
-5.050959
0
VERTEX
8
GEAR_1
10
-24.020650
20
-4.996795
0
VERTEX
8
GEAR_1
10
-23.943666
20
-4.943566
0
VERTEX
8
GEAR_1
10
-23.866431
20
-4.891286
0
VERTEX
8
GEAR_1
10
-23.788947
20
-4.839971
0
VERTEX
8
GEAR_1
10
-23.711213
20
-4.789638
0
VERTEX
8
GEAR_1
10
-23.633230
20
-4.740306
0
VERTEX
8
GEAR_1
10
-23.554997
20
-4.691994
0
VERTEX
8
GEAR_1
10
-23.476515
20
-4.644724
0
VERTEX
8
GEAR_1
10
-23.397782
20
-4.598520
0
VERTEX
8
GEAR_1
10
-23.318797
20
-4.553410
0
VERTEX
8
GEAR_1
10
-23.239557
20
-4.509423
0
VERTEX
8
GEAR_1
10
-23.160060
20
-4.466592
0
VERTEX
8
GEAR_1
10
-23.080303
20
-4.424954
0
VERTEX
8
GEAR_1
10
-23.000282
20
-4.384554
0
VERTEX
8
GEAR_1
10
-22.919990
20
-4.345439
0
VERTEX
8
GEAR_1
10
-22.839420
20
-4.307670
0
VERTEX
8
GEAR_1
10
-22.758563
20
-4.271316
0
VERTEX
8
GEAR_1
10
-22.677408
20
-4.236460
0
VERTEX
8
GEAR_1
10
-22.595937
20
-4.203211
0
VERTEX
8
GEAR_1
10
-22.514129
20
-4.171705
0
VERTEX
8
GEAR_1
10
-22.431952
20
-4.142135
0
VERTEX
8
GEAR_1
10
-22.349358
20
-4.114784
0
VERTEX
8
GEAR_1
10
-22.266258
20
-4.090151
0
VERTEX
8
GEAR_1
10
-22.182398
20
-4.069648
0
VERTEX
8
GEAR_1
10
-21.923562
20
-4.022161
0
VERTEX
8
GEAR_1
10
-21.664726
20
-3.974674
0
VERTEX
8
GEAR_1
10
-21.405890
20
-3.927187
0
VERTEX
8
GEAR_1
10
-21.147055
20
-3.879701
0
VERTEX
8
GEAR_1
10
-20.964311
20
-4.769452
0
VERTEX
8
GEAR_1
10
-20.744148
20
-5.650691
0
VERTEX
8
GEAR_1
10
-20.486961
20
-6.521844
0
VERTEX
8
GEAR_1
10
-20.193206
20
-7.381356
0
VERTEX
8
GEAR_1
10
-19.863410
20
-8.227694
0
VERTEX
8
GEAR_1
10
-19.498160
20
-9.059346
0
VERTEX
8
GEAR_1
10
-19.098109
20
-9.874829
0
VERTEX
8
GEAR_1
10
-18.663970
20
-10.672686
0
VERTEX
8
GEAR_1
10
-18.196518
20
-11.451494
0
VERTEX
8
GEAR_1
10
-17.696588
20
-12.209863
0
VERTEX
8
GEAR_1
10
-17.913191
20
-12.359309
0
VERTEX
8
GEAR_1
10
-18.129794
20
-12.508756
0
VERTEX
8
GEAR_1
10
-18.346397
20
-12.658202
0
VERTEX
8
GEAR_1
10
-18.562999
20
-12.807648
0
VERTEX
8
GEAR_1
10
-18.636796
20
-12.852449
0
VERTEX
8
GEAR_1
10
-18.712974
20
-12.893791
0
VERTEX
8
GEAR_1
10
-18.790717
20
-12.932854
0
VERTEX
8
GEAR_1
10
-18.869734
20
-12.970052
0
VERTEX
8
GEAR_1
10
-18.949859
20
-13.005621
0
VERTEX
8
GEAR_1
10
-19.030979
20
-13.039719
0
VERTEX
8
GEAR_1
10
-19.113011
20
-13.072458
0
VERTEX
8
GEAR_1
10
-19.195892
20
-13.103926
0
VERTEX
8
GEAR_1
10
-19.279570
20
-13.134191
0
VERTEX
8
GEAR_1
10
-19.364003
20
-13.163308
0
VERTEX
8
GEAR_1
10
-19.449154
20
-13.191324
0
VERTEX
8
GEAR_1
10
-19.534993
20
-13.218278
0
VERTEX
8
GEAR_1
10
-19.621492
20
-13.244205
0
VERTEX
8
GEAR_1
10
-19.708626
20
-13.269132
0
VERTEX
8
GEAR_1
10
-19.796375
20
-13.293085
0
VERTEX
8
GEAR_1
10
-19.884719
20
-13.316087
0
VERTEX
8
GEAR_1
10
-19.973639
20
-13.338158
0
VERTEX
8
GEAR_1
10
-20.063119
20
-13.359315
0
VERTEX
8
GEAR_1
10
-20.153145
20
-13.379574
0
VERTEX
8
GEAR_1
10
-20.243702
20
-13.398949
0
VERTEX
8
GEAR_1
10
-20.334777
20
-13.417454
0
VERTEX
8
GEAR_1
10
-20.426357
20
-13.435099
0
VERTEX
8
GEAR_1
10
-20.518432
20
-13.451897
0
VERTEX
8
GEAR_1
10
-20.610990
20
-13.467856
0
VERTEX
8
GEAR_1
10
-20.704021
20
-13.482985
0
VERTEX
8
GEAR_1
10
-20.797515
20
-13.497294
0
VERTEX
8
GEAR_1
10
-20.891463
20
-13.510788
0
VERTEX
8
GEAR_1
10
-20.985855
20
-13.523475
0
VERTEX
8
GEAR_1
10
-21.080684
20
-13.535362
0
VERTEX
8
GEAR_1
10
-21.175940
20
-13.546454
0
VERTEX
8
GEAR_1
10
-21.271617
20
-13.556757
0
VERTEX
8
GEAR_1
10
-21.367705
20
-13.566276
0
VERTEX
8
GEAR_1
10
-21.464198
20
-13.575015
0
VERTEX
8
GEAR_1
10
-21.561089
20
-13.582978
0
VERTEX
8
GEAR_1
10
-21.658370
20
-13.590171
0
VERTEX
8
GEAR_1
10
-21.756035
20
-13.596596
0
VERTEX
8
GEAR_1
10
-21.854078
20
-13.602256
0
VERTEX
8
GEAR_1
10
-21.952491
20
-13.607156
0
VERTEX
8
GEAR_1
10
-22.051268
20
-13.611297
0
VERTEX
8
GEAR_1
10
-22.150404
20
-13.614684
0
VERTEX
8
GEAR_1
10
-22.243552
20
-13.461961
0
VERTEX
8
GEAR_1
10
-22.335647
20
-13.308602
0
VERTEX
8
GEAR_1
10
-22.426684
20
-13.154612
0
VERTEX
8
GEAR_1
10
-22.516660
20
-13.000000
0
VERTEX
8
GEAR_1
10
-22.605571
20
-12.844772
0
VERTEX
8
GEAR_1
10
-22.693411
20
-12.688937
0
VERTEX
8
GEAR_1
10
-22.780176
20
-12.532500
0
VERTEX
8
GEAR_1
10
-22.865864
20
-12.375470
0
VERTEX
8
GEAR_1
10
-22.813363
20
-12.291310
0
VERTEX
8
GEAR_1
10
-22.760388
20
-12.207837
0
VERTEX
8
GEAR_1
10
-22.706938
20
-12.125058
0
VERTEX
8
GEAR_1
10
-22.653015
20
-12.042981
0
VERTEX
8
GEAR_1
10
-22.598618
20
-11.961613
0
VERTEX
8
GEAR_1
10
-22.543749
20
-11.880962
0
VERTEX
8
GEAR_1
10
-22.488407
20
-11.801034
0
VERTEX
8
GEAR_1
10
-22.432592
20
-11.721838
0
VERTEX
8
GEAR_1
10
-22.376304
20
-11.643382
0
VERTEX
8
GEAR_1
10
-22.319544
20
-11.565675
0
VERTEX
8
GEAR_1
10
-22.262309
20
-11.488727
0
VERTEX
8
GEAR_1
10
-22.204601
20
-11.412546
0
VERTEX
8
GEAR_1
10
-22.146417
20
-11.337144
0
VERTEX
8
GEAR_1
10
-22.087757
20
-11.262530
0
VERTEX
8
GEAR_1
10
-22.028619
20
-11.188716
0
VERTEX
8
GEAR_1
10
-21.969000
20
-11.115713
0
VERTEX
8
GEAR_1
10
-21.908900
20
-11.043535
0
VERTEX
8
GEAR_1
10
-21.848316
20
-10.972195
0
VERTEX
8
GEAR_1
10
-21.787244
20
-10.901706
0
VERTEX
8
GEAR_1
10
-21.725681
20
-10.832086
0
VERTEX
8
GEAR_1
10
-21.663623
20
-10.763349
0
VERTEX
8
GEAR_1
10
-21.601066
20
-10.695514
0
VERTEX
8
GEAR_1
10
-21.538003
20
-10.628600
0
VERTEX
8
GEAR_1
10
-21.474429
20
-10.562628
0
VERTEX
8
GEAR_1
10
-21.410337
20
-10.497621
0
VERTEX
8
GEAR_1
10
-21.345719
20
-10.433605
0
VERTEX
8
GEAR_1
10
-21.280564
20
-10.370608
0
VERTEX
8
GEAR_1
10
-21.214861
20
-10.308661
0
VERTEX
8
GEAR_1
10
-21.148599
20
-10.247800
0
VERTEX
8
GEAR_1
10
-21.081760
20
-10.188064
0
VERTEX
8
GEAR_1
10
-21.014328
20
-10.129502
0
VERTEX
8
GEAR_1
10
-20.946279
20
-10.072167
0
VERTEX
8
GEAR_1
10
-20.877586
20
-10.016124
0
VERTEX
8
GEAR_1
10
-20.808217
20
-9.961451
0
VERTEX
8
GEAR_1
10
-20.738128
20
-9.908249
0
VERTEX
8
GEAR_1
10
-20.667262
20
-9.856643
0
VERTEX
8
GEAR_1
10
-20.595539
20
-9.806811
0
VERTEX
8
GEAR_1
10
-20.522838
20
-9.759015
0
VERTEX
8
GEAR_1
10
-20.448945
20
-9.713714
0
VERTEX
8
GEAR_1
10
-20.373248
20
-9.672205
0
VERTEX
8
GEAR_1
10
-20.135523
20
-9.559345
0
VERTEX
8
GEAR_1
10
-19.897797
20
-9.446484
0
VERTEX
8
GEAR_1
10
-19.660072
20
-9.333624
0
VERTEX
8
GEAR_1
10
-19.422346
20
-9.220764
0
VERTEX
8
GEAR_1
10
-19.015544
20
-10.032900
0
VERTEX
8
GEAR_1
10
-18.574802
20
-10.827129
0
VERTEX
8
GEAR_1
10
-18.100907
20
-11.602033
0
VERTEX
8
GEAR_1
10
-17.594704
20
-12.356229
0
VERTEX
8
GEAR_1
10
-17.057097
20
-13.088371
0
VERTEX
8
GEAR_1
10
-16.489045
20
-13.797152
0
VERTEX
8
GEAR_1
10
-15.891563
20
-14.481306
0
VERTEX
8
GEAR_1
10
-15.265716
20
-15.139614
0
VERTEX
8
GEAR_1
10
-14.612622
20
-15.770900
0
VERTEX
8
GEAR_1
10
-13.933447
20
-16.374036
0
VERTEX
8
GEAR_1
10
-14.103989
20
-16.574451
0
VERTEX
8
GEAR_1
10
-14.274532
20
-16.774866
0
VERTEX
8
GEAR_1
10
-14.445075
20
-16.975281
0
VERTEX
8
GEAR_1
10
-14.615617
20
-17.175696
0
VERTEX
8
GEAR_1
10
-14.675304
20
-17.238070
0
VERTEX
8
GEAR_1
10
-14.738186
20
-17.297720
0
VERTEX
8
GEAR_1
10
-14.803170
20
-17.355573
0
VERTEX
8
GEAR_1
10
-14.869867
20
-17.411955
0
VERTEX
8
GEAR_1
10
-14.938056
20
-17.467050
0
VERTEX
8
GEAR_1
10
-15.007586
20
-17.520981
0
VERTEX
8
GEAR_1
10
-15.078350
20
-17.573836
0
VERTEX
8
GEAR_1
10
-15.150262
20
-17.625683
0
VERTEX
8
GEAR_1
10
-15.223256
20
-17.676574
0
VERTEX
8
GEAR_1
10
-15.297276
20
-17.726552
0
VERTEX
8
GEAR_1
10
-15.372274
20
-17.775652
0
VERTEX
8
GEAR_1
10
-15.448212
20
-17.823905
0
VERTEX
8
GEAR_1
10
-15.525053
20
-17.871335
0
VERTEX
8
GEAR_1
10
-15.602767
20
-17.917965
0
VERTEX
8
GEAR_1
10
-15.681327
20
-17.963813
0
VERTEX
8
GEAR_1
10
-15.760706
20
-18.008897
0
VERTEX
8
GEAR_1
10
-15.840884
20
-18.053229
0
VERTEX
8
GEAR_1
10
-15.921840
20
-18.096824
0
VERTEX
8
GEAR_1
10
-16.003555
20
-18.139693
0
VERTEX
8
GEAR_1
10
-16.086011
20
-18.181846
0
VERTEX
8
GEAR_1
10
-16.169194
20
-18.223292
0
VERTEX
8
GEAR_1
10
-16.253087
20
-18.264040
0
VERTEX
8
GEAR_1
10
-16.337676
20
-18.304096
0
VERTEX
8
GEAR_1
10
-16.422950
20
-18.343467
0
VERTEX
8
GEAR_1
10
-16.508895
20
-18.382159
0
VERTEX
8
GEAR_1
10
-16.595500
20
-18.420178
0
VERTEX
8
GEAR_1
10
-16.682754
20
-18.457528
0
VERTEX
8
GEAR_1
10
-16.770647
20
-18.494213
0
VERTEX
8
GEAR_1
10
-16.859168
20
-18.530238
0
VERTEX
8
GEAR_1
10
-16.948307
20
-18.565607
0
VERTEX
8
GEAR_1
10
-17.038057
20
-18.600321
0
VERTEX
8
GEAR_1
10
-17.128408
20
-18.634385
0
VERTEX
8
GEAR_1
10
-17.219351
20
-18.667801
0
VERTEX
8
GEAR_1
10
-17.310879
20
-18.700570
0
VERTEX
8
GEAR_1
10
-17.402984
20
-18.732696
0
VERTEX
8
GEAR_1
10
-17.495658
20
-18.764179
0
VERTEX
8
GEAR_1
10
-17.588895
20
-18.795022
0
VERTEX
8
GEAR_1
10
-17.682686
20
-18.825226
0
VERTEX
8
GEAR_1
10
-17.777026
20
-18.854792
0
VERTEX
8
GEAR_1
10
-17.871908
20
-18.883721
0
VERTEX
8
GEAR_1
10
-18.001409
20
-18.760311
0
VERTEX
8
GEAR_1
10
-18.130058
20
-18.636013
0
VERTEX
8
GEAR_1
10
-18.257850
20
-18.510833
0
VERTEX
8
GEAR_1
10
-18.384776
20
-18.384776
0
VERTEX
8
GEAR_1
10
-18.510833
20
-18.257850
0
VERTEX
8
GEAR_1
10
-18.636013
20
-18.130058
0
VERTEX
8
GEAR_1
10
-18.760311
20
-18.001409
0
VERTEX
8
GEAR_1
10
-18.883721
20
-17.871908
0
VERTEX
8
GEAR_1
10
-18.854792
20
-17.777026
0
VERTEX
8
GEAR_1
10
-18.825226
20
-17.682686
0
VERTEX
8
GEAR_1
10
-18.795022
20
-17.588895
0
VERTEX
8
GEAR_1
10
-18.764179
20
-17.495658
0
VERTEX
8
GEAR_1
10
-18.732696
20
-17.402984
0
VERTEX
8
GEAR_1
10
-18.700570
20
-17.310879
0
VERTEX
8
GEAR_1
10
-18.667801
20
-17.219351
0
VERTEX
8
GEAR_1
10
-18.634385
20
-17.128408
0
VERTEX
8
GEAR_1
10
-18.600321
20
-17.038057
0
VERTEX
8
GEAR_1
10
-18.565607
20
-16.948307
0
VERTEX
8
GEAR_1
10
-18.530238
20
-16.859168
0
VERTEX
8
GEAR_1
10
-18.494213
20
-16.770647
0
VERTEX
8
GEAR_1
10
-18.457528
20
-16.682754
0
VERTEX
8
GEAR_1
10
-18.420178
20
-16.595500
0
VERTEX
8
GEAR_1
10
-18.382159
20
-16.508895
0
VERTEX
8
GEAR_1
10
-18.343467
20
-16.422950
0
VERTEX
8
GEAR_1
10
-18.304096
20
-16.337676
0
VERTEX
8
GEAR_1
10
-18.264040
20
-16.253087
0
VERTEX
8
GEAR_1
10
-18.223292
20
-16.169194
0
VERTEX
8
GEAR_1
10
-18.181846
20
-16.086011
0
VERTEX
8
GEAR_1
10
-18.139693
20
-16.003555
0
VERTEX
8
GEAR_1
10
-18.096824
20
-15.921840
0
VERTEX
8
GEAR_1
10
-18.053229
20
-15.840884
0
VERTEX
8
GEAR_1
10
-18.008897
20
-15.760706
0
VERTEX
8
GEAR_1
10
-17.963813
20
-15.681327
0
VERTEX
8
GEAR_1
10
-17.917965
20
-15.602767
0
VERTEX
8
GEAR_1
10
-17.871335
20
-15.525053
0
VERTEX
8
GEAR_1
10
-17.823905
20
-15.448212
0
VERTEX
8
GEAR_1
10
-17.775652
20
-15.372274
0
VERTEX
8
GEAR_1
10
-17.726552
20
-15.297276
0
VERTEX
8
GEAR_1
10
-17.676574
20
-15.223256
0
VERTEX
8
GEAR_1
10
-17.625683
20
-15.150262
0
VERTEX
8
GEAR_1
10
-17.573836
20
-15.078350
0
VERTEX
8
GEAR_1
10
-17.520981
20
-15.007586
0
VERTEX
8
GEAR_1
10
-17.467050
20
-14.938056
0
VERTEX
8
GEAR_1
10
-17.411955
20
-14.869867
0
VERTEX
8
GEAR_1
10
-17.355573
20
-14.803170
0
VERTEX
8
GEAR_1
10
-17.297720
20
-14.738186
0
VERTEX
8
GEAR_1
10
-17.238070
20
-14.675304
0
VERTEX
8
GEAR_1
10
-17.175696
20
-14.615617
0
VERTEX
8
GEAR_1
10
-16.975281
20
-14.445075
0
VERTEX
8
GEAR_1
10
-16.774866
20
-14.274532
0
VERTEX
8
GEAR_1
10
-16.574451
20
-14.103989
0
VERTEX
8
GEAR_1
10
-16.374036
20
-13.933447
0
VERTEX
8
GEAR_1
10
-15.770900
20
-14.612622
0
VERTEX
8
GEAR_1
10
-15.139614
20
-15.265716
0
VERTEX
8
GEAR_1
10
-14.481306
20
-15.891563
0
VERTEX
8
GEAR_1
10
-13.797152
20
-16.489045
0
VERTEX
8
GEAR_1
10
-13.088371
20
-17.057097
0
VERTEX
8
GEAR_1
10
-12.356229
20
-17.594704
0
VERTEX
8
GEAR_1
10
-11.602033
20
-18.100907
0
VERTEX
8
GEAR_1
10
-10.827129
20
-18.574802
0
VERTEX
8
GEAR_1
10
-10.032900
20
-19.015544
0
VERTEX
8
GEAR_1
10
-9.220764
20
-19.422346
0
VERTEX
8
GEAR_1
10
-9.333624
20
-19.660072
0
VERTEX
8
GEAR_1
10
-9.446484
20
-19.897797
0
VERTEX
8
GEAR_1
10
-9.559345
20
-20.135523
0
VERTEX
8
GEAR_1
10
-9.672205
20
-20.373248
0
VERTEX
8
GEAR_1
10
-9.713714
20
-20.448945
0
VERTEX
8
GEAR_1
10
-9.759015
20
-20.522838
0
VERTEX
8
GEAR_1
10
-9.806811
20
-20.595539
0
VERTEX
8
GEAR_1
10
-9.856643
20
-20.667262
0
VERTEX
8
GEAR_1
10
-9.908249
20
-20.738128
0
VERTEX
8
GEAR_1
10
-9.961451
20
-20.808217
0
VERTEX
8
GEAR_1
10
-10.016124
20
-20.877586
0
VERTEX
8
GEAR_1
10
-10.072167
20
-20.946279
0
VERTEX
8
GEAR_1
10
-10.129502
20
-21.014328
0
VERTEX
8
GEAR_1
10
-10.188064
20
-21.081760
0
VERTEX
8
GEAR_1
10
-10.247800
20
-21.148599
0
VERTEX
8
GEAR_1
10
-10.308661
20
-21.214861
0
VERTEX
8
GEAR_1
10
-10.370608
20
-21.280564
0
VERTEX
8
GEAR_1
10
-10.433605
20
-21.345719
0
VERTEX
8
GEAR_1
10
-10.497621
20
-21.410337
0
VERTEX
8
GEAR_1
10
-10.562628
20
-21.474429
0
VERTEX
8
GEAR_1
10
-10.628600
20
-21.538003
0
VERTEX
8
GEAR_1
10
-10.695514
20
-21.601066
0
VERTEX
8
GEAR_1
10
-10.763349
20
-21.663623
0
VERTEX
8
GEAR_1
10
-10.832086
20
-21.725681
0
VERTEX
8
GEAR_1
10
-10.901706
20
-21.787244
0
VERTEX
8
GEAR_1
10
-10.972195
20
-21.848316
0
VERTEX
8
GEAR_1
10
-11.043535
20
-21.908900
0
VERTEX
8
GEAR_1
10
-11.115713
20
-21.969000
0
VERTEX
8
GEAR_1
10
-11.188716
20
-22.028619
0
VERTEX
8
GEAR_1
10
-11.262530
20
-22.087757
0
VERTEX
8
GEAR_1
10
-11.337144
20
-22.146417
0
VERTEX
8
GEAR_1
10
-11.412546
20
-22.204601
0
VERTEX
8
GEAR_1
10
-11.488727
20
-22.262309
0
VERTEX
8
GEAR_1
10
-11.565675
20
-22.319544
0
VERTEX
8
GEAR_1
10
-11.643382
20
-22.376304
0
VERTEX
8
GEAR_1
10
-11.721838
20
-22.432592
0
VERTEX
8
GEAR_1
10
-11.801034
20
-22.488407
0
VERTEX
8
GEAR_1
10
-11.880962
20
-22.543749
0
VERTEX
8
GEAR_1
10
-11.961613
20
-22.598618
0
VERTEX
8
GEAR_1
10
-12.042981
20
-22.653015
0
VERTEX
8
GEAR_1
10
-12.125058
20
-22.706938
0
VERTEX
8
GEAR_1
10
-12.207837
20
-22.760388
0
VERTEX
8
GEAR_1
10
-12.291310
20
-22.813363
0
VERTEX
8
GEAR_1
10
-12.375470
20
-22.865864
0
VERTEX
8
GEAR_1
10
-12.532500
20
-22.780176
0
VERTEX
8
GEAR_1
10
-12.688937
20
-22.693411
0
VERTEX
8
GEAR_1
10
-12.844772
20
-22.605571
0
VERTEX
8
GEAR_1
10
-13.000000
20
-22.516660
0
VERTEX
8
GEAR_1
10
-13.154612
20
-22.426684
0
VERTEX
8
GEAR_1
10
-13.308602
20
-22.335647
0
VERTEX
8
GEAR_1
10
-13.461961
20
-22.243552
0
VERTEX
8
GEAR_1
10
-13.614684
20
-22.150404
0
VERTEX
8
GEAR_1
10
-13.611297
20
-22.051268
0
VERTEX
8
GEAR_1
10
-13.607156
20
-21.952491
0
VERTEX
8
GEAR_1
10
-13.602256
20
-21.854078
0
VERTEX
8
GEAR_1
10
-13.596596
20
-21.756035
0
VERTEX
8
GEAR_1
10
-13.590171
20
-21.658370
0
VERTEX
8
GEAR_1
10
-13.582978
20
-21.561089
0
VERTEX
8
GEAR_1
10
-13.575015
20
-21.464198
0
VERTEX
8
GEAR_1
10
-13.566276
20
-21.367705
0
VERTEX
8
GEAR_1
10
-13.556757
20
-21.271617
0
VERTEX
8
GEAR_1
10
-13.546454
20
-21.175940
0
VERTEX
8
GEAR_1
10
-13.535362
20
-21.080684
0
VERTEX
8
GEAR_1
10
-13.523475
20
-20.985855
0
VERTEX
8
GEAR_1
10
-13.510788
20
-20.891463
0
VERTEX
8
GEAR_1
10
-13.497294
20
-20.797515
0
VERTEX
8
GEAR_1
10
-13.482985
20
-20.704021
0
VERTEX
8
GEAR_1
10
-13.467856
20
-20.610990
0
VERTEX
8
GEAR_1
10
-13.451897
20
-20.518432
0
VERTEX
8
GEAR_1
10
-13.435099
20
-20.426357
0
VERTEX
8
GEAR_1
10
-13.417454
20
-20.334777
0
VERTEX
8
GEAR_1
10
-13.398949
20
-20.243702
0
VERTEX
8
GEAR_1
10
-13.379574
20
-20.153145
0
VERTEX
8
GEAR_1
10
-13.359315
20
-20.063119
0
VERTEX
8
GEAR_1
10
-13.338158
20
-19.973639
0
VERTEX
8
GEAR_1
10
-13.316087
20
-19.884719
0
VERTEX
8
GEAR_1
10
-13.293085
20
-19.796375
0
VERTEX
8
GEAR_1
10
-13.269132
20
-19.708626
0
VERTEX
8
GEAR_1
10
-13.244205
20
-19.621492
0
VERTEX
8
GEAR_1
10
-13.218278
20
-19.534993
0
VERTEX
8
GEAR_1
10
-13.191324
20
-19.449154
0
VERTEX
8
GEAR_1
10
-13.163308
20
-19.364003
0
VERTEX
8
GEAR_1
10
-13.134191
20
-19.279570
0
VERTEX
8
GEAR_1
10
-13.103926
20
-19.195892
0
VERTEX
8
GEAR_1
10
-13.072458
20
-19.113011
0
VERTEX
8
GEAR_1
10
-13.039719
20
-19.030979
0
VERTEX
8
GEAR_1
10
-13.005621
20
-18.949859
0
VERTEX
8
GEAR_1
10
-12.970052
20
-18.869734
0
VERTEX
8
GEAR_1
10
-12.932854
20
-18.790717
0
VERTEX
8
GEAR_1
10
-12.893791
20
-18.712974
0
VERTEX
8
GEAR_1
10
-12.852449
20
-18.636796
0
VERTEX
8
GEAR_1
10
-12.807648
20
-18.562999
0
VERTEX
8
GEAR_1
10
-12.658202
20
-18.346397
0
VERTEX
8
GEAR_1
10
-12.508756
20
-18.129794
0
VERTEX
8
GEAR_1
10
-12.359309
20
-17.913191
0
VERTEX
8
GEAR_1
10
-12.209863
20
-17.696588
0
VERTEX
8
GEAR_1
10
-11.451494
20
-18.196518
0
VERTEX
8
GEAR_1
10
-10.672686
20
-18.663970
0
VERTEX
8
GEAR_1
10
-9.874829
20
-19.098109
0
VERTEX
8
GEAR_1
10
-9.059346
20
-19.498160
0
VERTEX
8
GEAR_1
10
-8.227694
20
-19.863410
0
VERTEX
8
GEAR_1
10
-7.381356
20
-20.193206
0
VERTEX
8
GEAR_1
10
-6.521844
20
-20.486961
0
VERTEX
8
GEAR_1
10
-5.650691
20
-20.744148
0
VERTEX
8
GEAR_1
10
-4.769452
20
-20.964311
0
VERTEX
8
GEAR_1
10
-3.879701
20
-21.147055
0
VERTEX
8
GEAR_1
10
-3.927187
20
-21.405890
0
VERTEX
8
GEAR_1
10
-3.974674
20
-21.664726
0
VERTEX
8
GEAR_1
10
-4.022161
20
-21.923562
0
VERTEX
8
GEAR_1
10
-4.069648
20
-22.182398
0
VERTEX
8
GEAR_1
10
-4.090151
20
-22.266258
0
VERTEX
8
GEAR_1
10
-4.114784
20
-22.349358
0
VERTEX
8
GEAR_1
10
-4.142135
20
-22.431952
0
VERTEX
8
GEAR_1
10
-4.171705
20
-22.514129
0
VERTEX
8
GEAR_1
10
-4.203211
20
-22.595937
0
VERTEX
8
GEAR_1
10
-4.236460
20
-22.677408
0
VERTEX
8
GEAR_1
10
-4.271316
20
-22.758563
0
VERTEX
8
GEAR_1
10
-4.307670
20
-22.839420
0
VERTEX
8
GEAR_1
10
-4.345439
20
-22.919990
0
VERTEX
8
GEAR_1
10
-4.384554
20
-23.000282
0
VERTEX
8
GEAR_1
10
-4.424954
20
-23.080303
0
VERTEX
8
GEAR_1
10
-4.466592
20
-23.160060
0
VERTEX
8
GEAR_1
10
-4.509423
20
-23.239557
0
VERTEX
8
GEAR_1
10
-4.553410
20
-23.318797
0
VERTEX
8
GEAR_1
10
-4.598520
20
-23.397782
0
VERTEX
8
GEAR_1
10
-4.644724
20
-23.476515
0
VERTEX
8
GEAR_1
10
-4.691994
20
-23.554997
0
VERTEX
8
GEAR_1
10
-4.740306
20
-23.633230
0
VERTEX
8
GEAR_1
10
-4.789638
20
-23.711213
0
VERTEX
8
GEAR_1
10
-4.839971
20
-23.788947
0
VERTEX
8
GEAR_1
10
-4.891286
20
-23.866431
0
VERTEX
8
GEAR_1
10
-4.943566
20
-23.943666
0
VERTEX
8
GEAR_1
10
-4.996795
20
-24.020650
0
VERTEX
8
GEAR_1
10
-5.050959
20
-24.097383
0
VERTEX
8
GEAR_1
10
-5.106043
20
-24.173864
0
VERTEX
8
GEAR_1
10
-5.162036
20
-24.250092
0
VERTEX
8
GEAR_1
10
-5.218925
20
-24.326065
0
VERTEX
8
GEAR_1
10
-5.276700
20
-24.401782
0
VERTEX
8
GEAR_1
10
-5.335348
20
-24.477241
0
VERTEX
8
GEAR_1
10
-5.394861
20
-24.552441
0
VERTEX
8
GEAR_1
10
-5.455230
20
-24.627379
0
VERTEX
8
GEAR_1
10
-5.516444
20
-24.702055
0
VERTEX
8
GEAR_1
10
-5.578495
20
-24.776465
0
VERTEX
8
GEAR_1
10
-5.641376
20
-24.850608
0
VERTEX
8
GEAR_1
10
-5.705079
20
-24.924482
0
VERTEX
8
GEAR_1
10
-5.769595
20
-24.998085
0
VERTEX
8
GEAR_1
10
-5.834919
20
-25.071414
0
VERTEX
8
GEAR_1
10
-5.901043
20
-25.144467
0
VERTEX
8
GEAR_1
10
-5.967960
20
-25.217242
0
VERTEX
8
GEAR_1
10
-6.035666
20
-25.289736
0
VERTEX
8
GEAR_1
10
-6.209522
20
-25.247610
0
VERTEX
8
GEAR_1
10
-6.383085
20
-25.204290
0
VERTEX
8
GEAR_1
10
-6.556345
20
-25.159776
0
VERTEX
8
GEAR_1
10
-6.729295
20
-25.114071
0
VERTEX
8
GEAR_1
10
-6.901927
20
-25.067178
0
VERTEX
8
GEAR_1
10
-7.074231
20
-25.019098
0
VERTEX
8
GEAR_1
10
-7.246201
20
-24.969833
0
VERTEX
8
GEAR_1
10
-7.417828
20
-24.919386
0
VERTEX
8
GEAR_1
10
-7.440216
20
-24.822752
0
VERTEX
8
GEAR_1
10
-7.461781
20
-24.726269
0
VERTEX
8
GEAR_1
10
-7.482519
20
-24.629941
0
VERTEX
8
GEAR_1
10
-7.502427
20
-24.533774
0
VERTEX
8
GEAR_1
10
-7.521498
20
-24.437774
0
VERTEX
8
GEAR_1
10
-7.539729
20
-24.341946
0
VERTEX
8
GEAR_1
10
-7.557114
20
-24.246296
0
VERTEX
8
GEAR_1
10
-7.573647
20
-24.150829
0
VERTEX
8
GEAR_1
10
-7.589322
20
-24.055551
0
VERTEX
8
GEAR_1
10
-7.604133
20
-23.960468
0
VERTEX
8
GEAR_1
10
-7.618073
20
-23.865587
0
VERTEX
8
GEAR_1
10
-7.631135
20
-23.770913
0
VERTEX
8
GEAR_1
10
-7.643311
20
-23.676453
0
VERTEX
8
GEAR_1
10
-7.654591
20
-23.582214
0
VERTEX
8
GEAR_1
10
-7.664969
20
-23.488202
0
VERTEX
8
GEAR_1
10
-7.674433
20
-23.394425
0
VERTEX
8
GEAR_1
10
-7.682974
20
-23.300891
0
VERTEX
8
GEAR_1
10
-7.690579
20
-23.207606
0
VERTEX
8
GEAR_1
10
-7.697237
20
-23.114579
0
VERTEX
8
GEAR_1
10
-7.702935
20
-23.021818
0
VERTEX
8
GEAR_1
10
-7.707658
20
-22.929332
0
VERTEX
8
GEAR_1
10
-7.711390
20
-22.837130
0
VERTEX
8
GEAR_1
10
-7.714113
20
-22.745223
0
VERTEX
8
GEAR_1
10
-7.715809
20
-22.653620
0
VERTEX
8
GEAR_1
10
-7.716455
20
-22.562334
0
VERTEX
8
GEAR_1
10
-7.716029
20
-22.471375
0
VERTEX
8
GEAR_1
10
-7.714504
20
-22.380758
0
VERTEX
8
GEAR_1
10
-7.711848
20
-22.290496
0
VERTEX
8
GEAR_1
10
-7.708029
20
-22.200606
0
VERTEX
8
GEAR_1
10
-7.703006
20
-22.111105
0
VERTEX
8
GEAR_1
10
-7.696734
20
-22.022013
0
VERTEX
8
GEAR_1
10
-7.689158
20
-21.933353
0
VERTEX
8
GEAR_1
10
-7.680214
20
-21.845152
0
VERTEX
8
GEAR_1
10
-7.669822
20
-21.757441
0
VERTEX
8
GEAR_1
10
-7.657881
20
-21.670261
0
VERTEX
8
GEAR_1
10
-7.644262
20
-21.583660
0
VERTEX
8
GEAR_1
10
-7.628782
20
-21.497708
0
VERTEX
8
GEAR_1
10
-7.611172
20
-21.412504
0
VERTEX
8
GEAR_1
10
-7.590955
20
-21.328221
0
VERTEX
8
GEAR_1
10
-7.566781
20
-21.245344
0
VERTEX
8
GEAR_1
10
-7.478487
20
-20.997442
0
VERTEX
8
GEAR_1
10
-7.390194
20
-20.749540
0
VERTEX
8
GEAR_1
10
-7.301901
20
-20.501639
0
VERTEX
8
GEAR_1
10
-7.213608
20
-20.253737
0
VERTEX
8
GEAR_1
10
-6.351689
20
-20.540352
0
VERTEX
8
GEAR_1
10
-5.478432
20
-20.790305
0
VERTEX
8
GEAR_1
10
-4.595398
20
-21.003150
0
VERTEX
8
GEAR_1
10
-3.704161
20
-21.178508
0
VERTEX
8
GEAR_1
10
-2.806313
20
-21.316065
0
VERTEX
8
GEAR_1
10
-1.903456
20
-21.415575
0
VERTEX
8
GEAR_1
10
-0.997202
20
-21.476862
0
VERTEX
8
GEAR_1
10
-0.089168
20
-21.499815
0
VERTEX
8
GEAR_1
10
0.819026
20
-21.484394
0
VERTEX
8
GEAR_1
10
1.725757
20
-21.430627
0
VERTEX
8
GEAR_1
10
1.746880
20
-21.692933
0
VERTEX
8
GEAR_1
10
1.768003
20
-21.955240
0
VERTEX
8
GEAR_1
10
1.789126
20
-22.217547
0
VERTEX
8
GEAR_1
10
1.810249
20
-22.479853
0
VERTEX
8
GEAR_1
10
1.812150
20
-22.566163
0
VERTEX
8
GEAR_1
10
1.809864
20
-22.652807
0
VERTEX
8
GEAR_1
10
1.804821
20
-22.739665
0
VERTEX
8
GEAR_1
10
1.797527
20
-22.826695
0
VERTEX
8
GEAR_1
10
1.788269
20
-22.913870
0
VERTEX
8
GEAR_1
10
1.777239
20
-23.001170
0
VERTEX
8
GEAR_1
10
1.764576
20
-23.088582
0
VERTEX
8
GEAR_1
10
1.750387
20
-23.176093
0
VERTEX
8
GEAR_1
10
1.734758
20
-23.263693
0
VERTEX
8
GEAR_1
10
1.717757
20
-23.351372
0
VERTEX
8
GEAR_1
10
1.699445
20
-23.439124
0
VERTEX
8
GEAR_1
10
1.679868
20
-23.526939
0
VERTEX
8
GEAR_1
10
1.659072
20
-23.614813
0
VERTEX
8
GEAR_1
10
1.637092
20
-23.702737
0
VERTEX
8
GEAR_1
10
1.613962
20
-23.790707
0
VERTEX
8
GEAR_1
10
1.589711
20
-23.878715
0
VERTEX
8
GEAR_1
10
1.564364
20
-23.966758
0
VERTEX
8
GEAR_1
10
1.537946
20
-24.054828
0
VERTEX
8
GEAR_1
10
1.510478
20
-24.142922
0
VERTEX
8
GEAR_1
10
1.481979
20
-24.231035
0
VERTEX
8
GEAR_1
10
1.452467
20
-24.319160
0
VERTEX
8
GEAR_1
10
1.421959
20
-24.407294
0
VERTEX
8
GEAR_1
10
1.390468
20
-24.495432
0
VERTEX
8
GEAR_1
10
1.358010
20
-24.583569
0
VERTEX
8
GEAR_1
10
1.324597
20
-24.671701
0
VERTEX
8
GEAR_1
10
1.290242
20
-24.759823
0
VERTEX
8
GEAR_1
10
1.254954
20
-24.847932
0
VERTEX
8
GEAR_1
10
1.218745
20
-24.936022
0
VERTEX
8
GEAR_1
10
1.181625
20
-25.024089
0
VERTEX
8
GEAR_1
10
1.143603
20
-25.112129
0
VERTEX
8
GEAR_1
10
1.104688
20
-25.200139
0
VERTEX
8
GEAR_1
10
1.064887
20
-25.288113
0
VERTEX
8
GEAR_1
10
1.024208
20
-25.376048
0
VERTEX
8
GEAR_1
10
0.982660
20
-25.463940
0
VERTEX
8
GEAR_1
10
0.940248
20
-25.551784
0
VERTEX
8
GEAR_1
10
0.896980
20
-25.639577
0
VERTEX
8
GEAR_1
10
0.852861
20
-25.727314
0
VERTEX
8
GEAR_1
10
0.807897
20
-25.814992
0
VERTEX
8
GEAR_1
10
0.762095
20
-25.902607
0
VERTEX
8
GEAR_1
10
0.715460
20
-25.990154
0
VERTEX
8
GEAR_1
10
0.536625
20
-25.994462
0
VERTEX
8
GEAR_1
10
0.357764
20
-25.997538
0
VERTEX
8
GEAR_1
10
0.178886
20
-25.999385
0
VERTEX
8
GEAR_1
10
-0.000000
20
-26.000000
0
VERTEX
8
GEAR_1
10
-0.178886
20
-25.999385
0
VERTEX
8
GEAR_1
10
-0.357764
20
-25.997538
0
VERTEX
8
GEAR_1
10
-0.536625
20
-25.994462
0
VERTEX
8
GEAR_1
10
-0.715460
20
-25.990154
0
VERTEX
8
GEAR_1
10
-0.762095
20
-25.902607
0
VERTEX
8
GEAR_1
10
-0.807897
20
-25.814992
0
VERTEX
8
GEAR_1
10
-0.852861
20
-25.727314
0
VERTEX
8
GEAR_1
10
-0.896980
20
-25.639577
0
VERTEX
8
GEAR_1
10
-0.940248
20
-25.551784
0
VERTEX
8
GEAR_1
10
-0.982660
20
-25.463940
0
VERTEX
8
GEAR_1
10
-1.024208
20
-25.376048
0
VERTEX
8
GEAR_1
10
-1.064887
20
-25.288113
0
VERTEX
8
GEAR_1
10
-1.104688
20
-25.200139
0
VERTEX
8
GEAR_1
10
-1.143603
20
-25.112129
0
VERTEX
8
GEAR_1
10
-1.181625
20
-25.024089
0
VERTEX
8
GEAR_1
10
-1.218745
20
-24.936022
0
VERTEX
8
GEAR_1
10
-1.254954
20
-24.847932
0
VERTEX
8
GEAR_1
10
-1.290242
20
-24.759823
0
VERTEX
8
GEAR_1
10
-1.324597
20
-24.671701
0
VERTEX
8
GEAR_1
10
-1.358010
20
-24.583569
0
VERTEX
8
GEAR_1
10
-1.390468
20
-24.495432
0
VERTEX
8
GEAR_1
10
-1.421959
20
-24.407294
0
VERTEX
8
GEAR_1
10
-1.452467
20
-24.319160
0
VERTEX
8
GEAR_1
10
-1.481979
20
-24.231035
0
VERTEX
8
GEAR_1
10
-1.510478
20
-24.142922
0
VERTEX
8
GEAR_1
10
-1.537946
20
-24.054828
0
VERTEX
8
GEAR_1
10
-1.564364
20
-23.966758
0
VERTEX
8
GEAR_1
10
-1.589711
20
-23.878715
0
VERTEX
8
GEAR_1
10
-1.613962
20
-23.790707
0
VERTEX
8
GEAR_1
10
-1.637092
20
-23.702737
0
VERTEX
8
GEAR_1
10
-1.659072
20
-23.614813
0
VERTEX
8
GEAR_1
10
-1.679868
20
-23.526939
0
VERTEX
8
GEAR_1
10
-1.699445
20
-23.439124
0
VERTEX
8
GEAR_1
10
-1.717757
20
-23.351372
0
VERTEX
8
GEAR_1
10
-1.734758
20
-23.263693
0
VERTEX
8
GEAR_1
10
-1.750387
20
-23.176093
0
VERTEX
8
GEAR_1
10
-1.764576
20
-23.088582
0
VERTEX
8
GEAR_1
10
-1.777239
20
-23.001170
0
VERTEX
8
GEAR_1
10
-1.788269
20
-22.913870
0
VERTEX
8
GEAR_1
10
-1.797527
20
-22.826695
0
VERTEX
8
GEAR_1
10
-1.804821
20
-22.739665
0
VERTEX
8
GEAR_1
10
-1.809864
20
-22.652807
0
VERTEX
8
GEAR_1
10
-1.812150
20
-22.566163
0
VERTEX
8
GEAR_1
10
-1.810249
20
-22.479853
0
VERTEX
8
GEAR_1
10
-1.789126
20
-22.217547
0
VERTEX
8
GEAR_1
10
-1.768003
20
-21.955240
0
VERTEX
8
GEAR_1
10
-1.746880
20
-21.692933
0
VERTEX
8
GEAR_1
10
-1.725757
20
-21.430627
0
VERTEX
8
GEAR_1
10
-0.819026
20
-21.484394
0
VERTEX
8
GEAR_1
10
0.089168
20
-21.499815
0
VERTEX
8
GEAR_1
10
0.997202
20
-21.476862
0
VERTEX
8
GEAR_1
10
1.903456
20
-21.415575
0
VERTEX
8
GEAR_1
10
2.806313
20
-21.316065
0
VERTEX
8
GEAR_1
10
3.704161
20
-21.178508
0
VERTEX
8
GEAR_1
10
4.595398
20
-21.003150
0
VERTEX
8
GEAR_1
10
5.478432
20
-20.790305
0
VERTEX
8
GEAR_1
10
6.351689
20
-20.540352
0
VERTEX
8
GEAR_1
10
7.213608
20
-20.253737
0
VERTEX
8
GEAR_1
10
7.301901
20
-20.501639
0
VERTEX
8
GEAR_1
10
7.390194
20
-20.749540
0
VERTEX
8
GEAR_1
10
7.478487
20
-20.997442
0
VERTEX
8
GEAR_1
10
7.566781
20
-21.245344
0
VERTEX
8
GEAR_1
10
7.590955
20
-21.328221
0
VERTEX
8
GEAR_1
10
7.611172
20
-21.412504
0
VERTEX
8
GEAR_1
10
7.628782
20
-21.497708
0
VERTEX
8
GEAR_1
10
7.644262
20
-21.583660
0
VERTEX
8
GEAR_1
10
7.657881
20
-21.670261
0
VERTEX
8
GEAR_1
10
7.669822
20
-21.757441
0
VERTEX
8
GEAR_1
10
7.680214
20
-21.845152
0
VERTEX
8
GEAR_1
10
7.689158
20
-21.933353
0
VERTEX
8
GEAR_1
10
7.696734
20
-22.022013
0
VERTEX
8
GEAR_1
10
7.703006
20
-22.111105
0
VERTEX
8
GEAR_1
10
7.708029
20
-22.200606
0
VERTEX
8
GEAR_1
10
7.711848
20
-22.290496
0
VERTEX
8
GEAR_1
10
7.714504
20
-22.380758
0
VERTEX
8
GEAR_1
10
7.716029
20
-22.471375
0
VERTEX
8
GEAR_1
10
7.716455
20
-22.562334
0
VERTEX
8
GEAR_1
10
7.715809
20
-22.653620
0
VERTEX
8
GEAR_1
10
7.714113
20
-22.745223
0
VERTEX
8
GEAR_1
10
7.711390
20
-22.837130
0
VERTEX
8
GEAR_1
10
7.707658
20
-22.929332
0
VERTEX
8
GEAR_1
10
7.702935
20
-23.021818
0
VERTEX
8
GEAR_1
10
7.697237
20
-23.114579
0
VERTEX
8
GEAR_1
10
7.690579
20
-23.207606
0
VERTEX
8
GEAR_1
10
7.682974
20
-23.300891
0
VERTEX
8
GEAR_1
10
7.674433
20
-23.394425
0
VERTEX
8
GEAR_1
10
7.664969
20
-23.488202
0
VERTEX
8
GEAR_1
10
7.654591
20
-23.582214
0
VERTEX
8
GEAR_1
10
7.643311
20
-23.676453
0
VERTEX
8
GEAR_1
10
7.631135
20
-23.770913
0
VERTEX
8
GEAR_1
10
7.618073
20
-23.865587
0
VERTEX
8
GEAR_1
10
7.604133
20
-23.960468
0
VERTEX
8
GEAR_1
10
7.589322
20
-24.055551
0
VERTEX
8
GEAR_1
10
7.573647
20
-24.150829
0
VERTEX
8
GEAR_1
10
7.557114
20
-24.246296
0
VERTEX
8
GEAR_1
10
7.539729
20
-24.341946
0
VERTEX
8
GEAR_1
10
7.521498
20
-24.437774
0
VERTEX
8
GEAR_1
10
7.502427
20
-24.533774
0
VERTEX
8
GEAR_1
10
7.482519
20
-24.629941
0
VERTEX
8
GEAR_1
10
7.461781
20
-24.726269
0
VERTEX
8
GEAR_1
10
7.440216
20
-24.822752
0
VERTEX
8
GEAR_1
10
7.417828
20
-24.919386
0
VERTEX
8
GEAR_1
10
7.246201
20
-24.969833
0
VERTEX
8
GEAR_1
10
7.074231
20
-25.019098
0
VERTEX
8
GEAR_1
10
6.901927
20
-25.067178
0
VERTEX
8
GEAR_1
10
6.729295
20
-25.114071
0
VERTEX
8
GEAR_1
10
6.556345
20
-25.159776
0
VERTEX
8
GEAR_1
10
6.383085
20
-25.204290
0
VERTEX
8
GEAR_1
10
6.209522
20
-25.247610
0
VERTEX
8
GEAR_1
10
6.035666
20
-25.289736
0
VERTEX
8
GEAR_1
10
5.967960
20
-25.217242
0
VERTEX
8
GEAR_1
10
5.901043
20
-25.144467
0
VERTEX
8
GEAR_1
10
5.834919
20
-25.071414
0
VERTEX
8
GEAR_1
10
5.769595
20
-24.998085
0
VERTEX
8
GEAR_1
10
5.705079
20
-24.924482
0
VERTEX
8
GEAR_1
10
5.641376
20
-24.850608
0
VERTEX
8
GEAR_1
10
5.578495
20
-24.776465
0
VERTEX
8
GEAR_1
10
5.516444
20
-24.702055
0
VERTEX
8
GEAR_1
10
5.455230
20
-24.627379
0
VERTEX
8
GEAR_1
10
5.394861
20
-24.552441
0
VERTEX
8
GEAR_1
10
5.335348
20
-24.477241
0
VERTEX
8
GEAR_1
10
5.276700
20
-24.401782
0
VERTEX
8
GEAR_1
10
5.218925
20
-24.326065
0
VERTEX
8
GEAR_1
10
5.162036
20
-24.250092
0
VERTEX
8
GEAR_1
10
5.106043
20
-24.173864
0
VERTEX
8
GEAR_1
10
5.050959
20
-24.097383
0
VERTEX
8
GEAR_1
10
4.996795
20
-24.020650
0
VERTEX
8
GEAR_1
10
4.943566
20
-23.943666
0
VERTEX
8
GEAR_1
10
4.891286
20
-23.866431
0
VERTEX
8
GEAR_1
10
4.839971
20
-23.788947
0
VERTEX
8
GEAR_1
10
4.789638
20
-23.711213
0
VERTEX
8
GEAR_1
10
4.740306
20
-23.633230
0
VERTEX
8
GEAR_1
10
4.691994
20
-23.554997
0
VERTEX
8
GEAR_1
10
4.644724
20
-23.476515
0
VERTEX
8
GEAR_1
10
4.598520
20
-23.397782
0
VERTEX
8
GEAR_1
10
4.553410
20
-23.318797
0
VERTEX
8
GEAR_1
10
4.509423
20
-23.239557
0
VERTEX
8
GEAR_1
10
4.466592
20
-23.160060
0
VERTEX
8
GEAR_1
10
4.424954
20
-23.080303
0
VERTEX
8
GEAR_1
10
4.384554
20
-23.000282
0
VERTEX
8
GEAR_1
10
4.345439
20
-22.919990
0
VERTEX
8
GEAR_1
10
4.307670
20
-22.839420
0
VERTEX
8
GEAR_1
10
4.271316
20
-22.758563
0
VERTEX
8
GEAR_1
10
4.236460
20
-22.677408
0
VERTEX
8
GEAR_1
10
4.203211
20
-22.595937
0
VERTEX
8
GEAR_1
10
4.171705
20
-22.514129
0
VERTEX
8
GEAR_1
10
4.142135
20
-22.431952
0
VERTEX
8
GEAR_1
10
4.114784
20
-22.349358
0
VERTEX
8
GEAR_1
10
4.090151
20
-22.266258
0
VERTEX
8
GEAR_1
10
4.069648
20
-22.182398
0
VERTEX
8
GEAR_1
10
4.022161
20
-21.923562
0
VERTEX
8
GEAR_1
10
3.974674
20
-21.664726
0
VERTEX
8
GEAR_1
10
3.927187
20
-21.405890
0
VERTEX
8
GEAR_1
10
3.879701
20
-21.147055
0
VERTEX
8
GEAR_1
10
4.769452
20
-20.964311
0
VERTEX
8
GEAR_1
10
5.650691
20
-20.744148
0
VERTEX
8
GEAR_1
10
6.521844
20
-20.486961
0
VERTEX
8
GEAR_1
10
7.381356
20
-20.193206
0
VERTEX
8
GEAR_1
10
8.227694
20
-19.863410
0
VERTEX
8
GEAR_1
10
9.059346
20
-19.498160
0
VERTEX
8
GEAR_1
10
9.874829
20
-19.098109
0
VERTEX
8
GEAR_1
10
10.672686
20
-18.663970
0
VERTEX
8
GEAR_1
10
11.451494
20
-18.196518
0
VERTEX
8
GEAR_1
10
12.209863
20
-17.696588
0
VERTEX
8
GEAR_1
10
12.359309
20
-17.913191
0
VERTEX
8
GEAR_1
10
12.508756
20
-18.129794
0
VERTEX
8
GEAR_1
10
12.658202
20
-18.346397
0
VERTEX
8
GEAR_1
10
12.807648
20
-18.562999
0
VERTEX
8
GEAR_1
10
12.852449
20
-18.636796
0
VERTEX
8
GEAR_1
10
12.893791
20
-18.712974
0
VERTEX
8
GEAR_1
10
12.932854
20
-18.790717
0
VERTEX
8
GEAR_1
10
12.970052
20
-18.869734
0
VERTEX
8
GEAR_1
10
13.005621
20
-18.949859
0
VERTEX
8
GEAR_1
10
13.039719
20
-19.030979
0
VERTEX
8
GEAR_1
10
13.072458
20
-19.113011
0
VERTEX
8
GEAR_1
10
13.103926
20
-19.195892
0
VERTEX
8
GEAR_1
10
13.134191
20
-19.279570
0
VERTEX
8
GEAR_1
10
13.163308
20
-19.364003
0
VERTEX
8
GEAR_1
10
13.191324
20
-19.449154
0
VERTEX
8
GEAR_1
10
13.218278
20
-19.534993
0
VERTEX
8
GEAR_1
10
13.244205
20
-19.621492
0
VERTEX
8
GEAR_1
10
13.269132
20
-19.708626
0
VERTEX
8
GEAR_1
10
13.293085
20
-19.796375
0
VERTEX
8
GEAR_1
10
13.316087
20
-19.884719
0
VERTEX
8
GEAR_1
10
13.338158
20
-19.973639
0
VERTEX
8
GEAR_1
10
13.359315
20
-20.063119
0
VERTEX
8
GEAR_1
10
13.379574
20
-20.153145
0
VERTEX
8
GEAR_1
10
13.398949
20
-20.243702
0
VERTEX
8
GEAR_1
10
13.417454
20
-20.334777
0
VERTEX
8
GEAR_1
10
13.435099
20
-20.426357
0
VERTEX
8
GEAR_1
10
13.451897
20
-20.518432
0
VERTEX
8
GEAR_1
10
13.467856
20
-20.610990
0
VERTEX
8
GEAR_1
10
13.482985
20
-20.704021
0
VERTEX
8
GEAR_1
10
13.497294
20
-20.797515
0
VERTEX
8
GEAR_1
10
13.510788
20
-20.891463
0
VERTEX
8
GEAR_1
10
13.523475
20
-20.985855
0
VERTEX
8
GEAR_1
10
13.535362
20
-21.080684
0
VERTEX
8
GEAR_1
10
13.546454
20
-21.175940
0
VERTEX
8
GEAR_1
10
13.556757
20
-21.271617
0
VERTEX
8
GEAR_1
10
13.566276
20
-21.367705
0
VERTEX
8
GEAR_1
10
13.575015
20
-21.464198
0
VERTEX
8
GEAR_1
10
13.582978
20
-21.561089
0
VERTEX
8
GEAR_1
10
13.590171
20
-21.658370
0
VERTEX
8
GEAR_1
10
13.596596
20
-21.756035
0
VERTEX
8
GEAR_1
10
13.602256
20
-21.854078
0
VERTEX
8
GEAR_1
10
13.607156
20
-21.952491
0
VERTEX
8
GEAR_1
10
13.611297
20
-22.051268
0
VERTEX
8
GEAR_1
10
13.614684
20
-22.150404
0
VERTEX
8
GEAR_1
10
13.461961
20
-22.243552
0
VERTEX
8
GEAR_1
10
13.308602
20
-22.335647
0
VERTEX
8
GEAR_1
10
13.154612
20
-22.426684
0
VERTEX
8
GEAR_1
10
13.000000
20
-22.516660
0
VERTEX
8
GEAR_1
10
12.844772
20
-22.605571
0
VERTEX
8
GEAR_1
10
12.688937
20
-22.693411
0
VERTEX
8
GEAR_1
10
12.532500
20
-22.780176
0
VERTEX
8
GEAR_1
10
12.375470
20
-22.865864
0
VERTEX
8
GEAR_1
10
12.291310
20
-22.813363
0
VERTEX
8
GEAR_1
10
12.207837
20
-22.760388
0
VERTEX
8
GEAR_1
10
12.125058
20
-22.706938
0
VERTEX
8
GEAR_1
10
12.042981
20
-22.653015
0
VERTEX
8
GEAR_1
10
11.961613
20
-22.598618
0
VERTEX
8
GEAR_1
10
11.880962
20
-22.543749
0
VERTEX
8
GEAR_1
10
11.801034
20
-22.488407
0
VERTEX
8
GEAR_1
10
11.721838
20
-22.432592
0
VERTEX
8
GEAR_1
10
11.643382
20
-22.376304
0
VERTEX
8
GEAR_1
10
11.565675
20
-22.319544
0
VERTEX
8
GEAR_1
10
11.488727
20
-22.262309
0
VERTEX
8
GEAR_1
10
11.412546
20
-22.204601
0
VERTEX
8
GEAR_1
10
11.337144
20
-22.146417
0
VERTEX
8
GEAR_1
10
11.262530
20
-22.087757
0
VERTEX
8
GEAR_1
10
11.188716
20
-22.028619
0
VERTEX
8
GEAR_1
10
11.115713
20
-21.969000
0
VERTEX
8
GEAR_1
10
11.043535
20
-21.908900
0
VERTEX
8
GEAR_1
10
10.972195
20
-21.848316
0
VERTEX
8
GEAR_1
10
10.901706
20
-21.787244
0
VERTEX
8
GEAR_1
10
10.832086
20
-21.725681
0
VERTEX
8
GEAR_1
10
10.763349
20
-21.663623
0
VERTEX
8
GEAR_1
10
10.695514
20
-21.601066
0
VERTEX
8
GEAR_1
10
10.628600
20
-21.538003
0
VERTEX
8
GEAR_1
10
10.562628
20
-21.474429
0
VERTEX
8
GEAR_1
10
10.497621
20
-21.410337
0
VERTEX
8
GEAR_1
10
10.433605
20
-21.345719
0
VERTEX
8
GEAR_1
10
10.370608
20
-21.280564
0
VERTEX
8
GEAR_1
10
10.308661
20
-21.214861
0
VERTEX
8
GEAR_1
10
10.247800
20
-21.148599
0
VERTEX
8
GEAR_1
10
10.188064
20
-21.081760
0
VERTEX
8
GEAR_1
10
10.129502
20
-21.014328
0
VERTEX
8
GEAR_1
10
10.072167
20
-20.946279
0
VERTEX
8
GEAR_1
10
10.016124
20
-20.877586
0
VERTEX
8
GEAR_1
10
9.961451
20
-20.808217
0
VERTEX
8
GEAR_1
10
9.908249
20
-20.738128
0
VERTEX
8
GEAR_1
10
9.856643
20
-20.667262
0
VERTEX
8
GEAR_1
10
9.806811
20
-20.595539
0
VERTEX
8
GEAR_1
10
9.759015
20
-20.522838
0
VERTEX
8
GEAR_1
10
9.713714
20
-20.448945
0
VERTEX
8
GEAR_1
10
9.672205
20
-20.373248
0
VERTEX
8
GEAR_1
10
9.559345
20
-20.135523
0
VERTEX
8
GEAR_1
10
9.446484
20
-19.897797
0
VERTEX
8
GEAR_1
10
9.333624
20
-19.660072
0
VERTEX
8
GEAR_1
10
9.220764
20
-19.422346
0
VERTEX
8
GEAR_1
10
10.032900
20
-19.015544
0
VERTEX
8
GEAR_1
10
10.827129
20
-18.574802
0
VERTEX
8
GEAR_1
10
11.602033
20
-18.100907
0
VERTEX
8
GEAR_1
10
12.356229
20
-17.594704
0
VERTEX
8
GEAR_1
10
13.088371
20
-17.057097
0
VERTEX
8
GEAR_1
10
13.797152
20
-16.489045
0
VERTEX
8
GEAR_1
10
14.481306
20
-15.891563
0
VERTEX
8
GEAR_1
10
15.139614
20
-15.265716
0
VERTEX
8
GEAR_1
10
15.770900
20
-14.612622
0
VERTEX
8
GEAR_1
10
16.374036
20
-13.933447
0
VERTEX
8
GEAR_1
10
16.574451
20
-14.103989
0
VERTEX
8
GEAR_1
10
16.774866
20
-14.274532
0
VERTEX
8
GEAR_1
10
16.975281
20
-14.445075
0
VERTEX
8
GEAR_1
10
17.175696
20
-14.615617
0
VERTEX
8
GEAR_1
10
17.238070
20
-14.675304
0
VERTEX
8
GEAR_1
10
17.297720
20
-14.738186
0
VERTEX
8
GEAR_1
10
17.355573
20
-14.803170
0
VERTEX
8
GEAR_1
10
17.411955
20
-14.869867
0
VERTEX
8
GEAR_1
10
17.467050
20
-14.938056
0
VERTEX
8
GEAR_1
10
17.520981
20
-15.007586
0
VERTEX
8
GEAR_1
10
17.573836
20
-15.078350
0
VERTEX
8
GEAR_1
10
17.625683
20
-15.150262
0
VERTEX
8
GEAR_1
10
17.676574
20
-15.223256
0
VERTEX
8
GEAR_1
10
17.726552
20
-15.297276
0
VERTEX
8
GEAR_1
10
17.775652
20
-15.372274
0
VERTEX
8
GEAR_1
10
17.823905
20
-15.448212
0
VERTEX
8
GEAR_1
10
17.871335
20
-15.525053
0
VERTEX
8
GEAR_1
10
17.917965
20
-15.602767
0
VERTEX
8
GEAR_1
10
17.963813
20
-15.681327
0
VERTEX
8
GEAR_1
10
18.008897
20
-15.760706
0
VERTEX
8
GEAR_1
10
18.053229
20
-15.840884
0
VERTEX
8
GEAR_1
10
18.096824
20
-15.921840
0
VERTEX
8
GEAR_1
10
18.139693
20
-16.003555
0
VERTEX
8
GEAR_1
10
18.181846
20
-16.086011
0
VERTEX
8
GEAR_1
10
18.223292
20
-16.169194
0
VERTEX
8
GEAR_1
10
18.264040
20
-16.253087
0
VERTEX
8
GEAR_1
10
18.304096
20
-16.337676
0
VERTEX
8
GEAR_1
10
18.343467
20
-16.422950
0
VERTEX
8
GEAR_1
10
18.382159
20
-16.508895
0
VERTEX
8
GEAR_1
10
18.420178
20
-16.595500
0
VERTEX
8
GEAR_1
10
18.457528
20
-16.682754
0
VERTEX
8
GEAR_1
10
18.494213
20
-16.770647
0
VERTEX
8
GEAR_1
10
18.530238
20
-16.859168
0
VERTEX
8
GEAR_1
10
18.565607
20
-16.948307
0
VERTEX
8
GEAR_1
10
18.600321
20
-17.038057
0
VERTEX
8
GEAR_1
10
18.634385
20
-17.128408
0
VERTEX
8
GEAR_1
10
18.667801
20
-17.219351
0
VERTEX
8
GEAR_1
10
18.700570
20
-17.310879
0
VERTEX
8
GEAR_1
10
18.732696
20
-17.402984
0
VERTEX
8
GEAR_1
10
18.764179
20
-17.495658
0
VERTEX
8
GEAR_1
10
18.795022
20
-17.588895
0
VERTEX
8
GEAR_1
10
18.825226
20
-17.682686
0
VERTEX
8
GEAR_1
10
18.854792
20
-17.777026
0
VERTEX
8
GEAR_1
10
18.883721
20
-17.871908
0
VERTEX
8
GEAR_1
10
18.760311
20
-18.001409
0
VERTEX
8
GEAR_1
10
18.636013
20
-18.130058
0
VERTEX
8
GEAR_1
10
18.510833
20
-18.257850
0
VERTEX
8
GEAR_1
10
18.384776
20
-18.384776
0
VERTEX
8
GEAR_1
10
18.257850
20
-18.510833
0
VERTEX
8
GEAR_1
10
18.130058
20
-18.636013
0
VERTEX
8
GEAR_1
10
18.001409
20
-18.760311
0
VERTEX
8
GEAR_1
10
17.871908
20
-18.883721
0
VERTEX
8
GEAR_1
10
17.777026
20
-18.854792
0
VERTEX
8
GEAR_1
10
17.682686
20
-18.825226
0
VERTEX
8
GEAR_1
10
17.588895
20
-18.795022
0
VERTEX
8
GEAR_1
10
17.495658
20
-18.764179
0
VERTEX
8
GEAR_1
10
17.402984
20
-18.732696
0
VERTEX
8
GEAR_1
10
17.310879
20
-18.700570
0
VERTEX
8
GEAR_1
10
17.219351
20
-18.667801
0
VERTEX
8
GEAR_1
10
17.128408
20
-18.634385
0
VERTEX
8
GEAR_1
10
17.038057
20
-18.600321
0
VERTEX
8
GEAR_1
10
16.948307
20
-18.565607
0
VERTEX
8
GEAR_1
10
16.859168
20
-18.530238
0
VERTEX
8
GEAR_1
10
16.770647
20
-18.494213
0
VERTEX
8
GEAR_1
10
16.682754
20
-18.457528
0
VERTEX
8
GEAR_1
10
16.595500
20
-18.420178
0
VERTEX
8
GEAR_1
10
16.508895
20
-18.382159
0
VERTEX
8
GEAR_1
10
16.422950
20
-18.343467
0
VERTEX
8
GEAR_1
10
16.337676
20
-18.304096
0
VERTEX
8
GEAR_1
10
16.253087
20
-18.264040
0
VERTEX
8
GEAR_1
10
16.169194
20
-18.223292
0
VERTEX
8
GEAR_1
10
16.086011
20
-18.181846
0
VERTEX
8
GEAR_1
10
16.003555
20
-18.139693
0
VERTEX
8
GEAR_1
10
15.921840
20
-18.096824
0
VERTEX
8
GEAR_1
10
15.840884
20
-18.053229
0
VERTEX
8
GEAR_1
10
15.760706
20
-18.008897
0
VERTEX
8
GEAR_1
10
15.681327
20
-17.963813
0
VERTEX
8
GEAR_1
10
15.602767
20
-17.917965
0
VERTEX
8
GEAR_1
10
15.525053
20
-17.871335
0
VERTEX
8
GEAR_1
10
15.448212
20
-17.823905
0
VERTEX
8
GEAR_1
10
15.372274
20
-17.775652
0
VERTEX
8
GEAR_1
10
15.297276
20
-17.726552
0
VERTEX
8
GEAR_1
10
15.223256
20
-17.676574
0
VERTEX
8
GEAR_1
10
15.150262
20
-17.625683
0
VERTEX
8
GEAR_1
10
15.078350
20
-17.573836
0
VERTEX
8
GEAR_1
10
15.007586
20
-17.520981
0
VERTEX
8
GEAR_1
10
14.938056
20
-17.467050
0
VERTEX
8
GEAR_1
10
14.869867
20
-17.411955
0
VERTEX
8
GEAR_1
10
14.803170
20
-17.355573
0
VERTEX
8
GEAR_1
10
14.738186
20
-17.297720
0
VERTEX
8
GEAR_1
10
14.675304
20
-17.238070
0
VERTEX
8
GEAR_1
10
14.615617
20
-17.175696
0
VERTEX
8
GEAR_1
10
14.445075
20
-16.975281
0
VERTEX
8
GEAR_1
10
14.274532
20
-16.774866
0
VERTEX
8
GEAR_1
10
14.103989
20
-16.574451
0
VERTEX
8
GEAR_1
10
13.933447
20
-16.374036
0
VERTEX
8
GEAR_1
10
14.612622
20
-15.770900
0
VERTEX
8
GEAR_1
10
15.265716
20
-15.139614
0
VERTEX
8
GEAR_1
10
15.891563
20
-14.481306
0
VERTEX
8
GEAR_1
10
16.489045
20
-13.797152
0
VERTEX
8
GEAR_1
10
17.057097
20
-13.088371
0
VERTEX
8
GEAR_1
10
17.594704
20
-12.356229
0
VERTEX
8
GEAR_1
10
18.100907
20
-11.602033
0
VERTEX
8
GEAR_1
10
18.574802
20
-10.827129
0
VERTEX
8
GEAR_1
10
19.015544
20
-10.032900
0
VERTEX
8
GEAR_1
10
19.422346
20
-9.220764
0
VERTEX
8
GEAR_1
10
19.660072
20
-9.333624
0
VERTEX
8
GEAR_1
10
19.897797
20
-9.446484
0
VERTEX
8
GEAR_1
10
20.135523
20
-9.559345
0
VERTEX
8
GEAR_1
10
20.373248
20
-9.672205
0
VERTEX
8
GEAR_1
10
20.448945
20
-9.713714
0
VERTEX
8
GEAR_1
10
20.522838
20
-9.759015
0
VERTEX
8
GEAR_1
10
20.595539
20
-9.806811
0
VERTEX
8
GEAR_1
10
20.667262
20
-9.856643
0
VERTEX
8
GEAR_1
10
20.738128
20
-9.908249
0
VERTEX
8
GEAR_1
10
20.808217
20
-9.961451
0
VERTEX
8
GEAR_1
10
20.877586
20
-10.016124
0
VERTEX
8
GEAR_1
10
20.946279
20
-10.072167
0
VERTEX
8
GEAR_1
10
21.014328
20
-10.129502
0
VERTEX
8
GEAR_1
10
21.081760
20
-10.188064
0
VERTEX
8
GEAR_1
10
21.148599
20
-10.247800
0
VERTEX
8
GEAR_1
10
21.214861
20
-10.308661
0
VERTEX
8
GEAR_1
10
21.280564
20
-10.370608
0
VERTEX
8
GEAR_1
10
21.345719
20
-10.433605
0
VERTEX
8
GEAR_1
10
21.410337
20
-10.497621
0
VERTEX
8
GEAR_1
10
21.474429
20
-10.562628
0
VERTEX
8
GEAR_1
10
21.538003
20
-10.628600
0
VERTEX
8
GEAR_1
10
21.601066
20
-10.695514
0
VERTEX
8
GEAR_1
10
21.663623
20
-10.763349
0
VERTEX
8
GEAR_1
10
21.725681
20
-10.832086
0
VERTEX
8
GEAR_1
10
21.787244
20
-10.901706
0
VERTEX
8
GEAR_1
10
21.848316
20
-10.972195
0
VERTEX
8
GEAR_1
10
21.908900
20
-11.043535
0
VERTEX
8
GEAR_1
10
21.969000
20
-11.115713
0
VERTEX
8
GEAR_1
10
22.028619
20
-11.188716
0
VERTEX
8
GEAR_1
10
22.087757
20
-11.262530
0
VERTEX
8
GEAR_1
10
22.146417
20
-11.337144
0
VERTEX
8
GEAR_1
10
22.204601
20
-11.412546
0
VERTEX
8
GEAR_1
10
22.262309
20
-11.488727
0
VERTEX
8
GEAR_1
10
22.319544
20
-11.565675
0
VERTEX
8
GEAR_1
10
22.376304
20
-11.643382
0
VERTEX
8
GEAR_1
10
22.432592
20
-11.721838
0
VERTEX
8
GEAR_1
10
22.488407
20
-11.801034
0
VERTEX
8
GEAR_1
10
22.543749
20
-11.880962
0
VERTEX
8
GEAR_1
10
22.598618
20
-11.961613
0
VERTEX
8
GEAR_1
10
22.653015
20
-12.042981
0
VERTEX
8
GEAR_1
10
22.706938
20
-12.125058
0
VERTEX
8
GEAR_1
10
22.760388
20
-12.207837
0
VERTEX
8
GEAR_1
10
22.813363
20
-12.291310
0
VERTEX
8
GEAR_1
10
22.865864
20
-12.375470
0
VERTEX
8
GEAR_1
10
22.780176
20
-12.532500
0
VERTEX
8
GEAR_1
10
22.693411
20
-12.688937
0
VERTEX
8
GEAR_1
10
22.605571
20
-12.844772
0
VERTEX
8
GEAR_1
10
22.516660
20
-13.000000
0
VERTEX
8
GEAR_1
10
22.426684
20
-13.154612
0
VERTEX
8
GEAR_1
10
22.335647
20
-13.308602
0
VERTEX
8
GEAR_1
10
22.243552
20
-13.461961
0
VERTEX
8
GEAR_1
10
22.150404
20
-13.614684
0
VERTEX
8
GEAR_1
10
22.051268
20
-13.611297
0
VERTEX
8
GEAR_1
10
21.952491
20
-13.607156
0
VERTEX
8
GEAR_1
10
21.854078
20
-13.602256
0
VERTEX
8
GEAR_1
10
21.756035
20
-13.596596
0
VERTEX
8
GEAR_1
10
21.658370
20
-13.590171
0
VERTEX
8
GEAR_1
10
21.561089
20
-13.582978
0
VERTEX
8
GEAR_1
10
21.464198
20
-13.575015
0
VERTEX
8
GEAR_1
10
21.367705
20
-13.566276
0
VERTEX
8
GEAR_1
10
21.271617
20
-13.556757
0
VERTEX
8
GEAR_1
10
21.175940
20
-13.546454
0
VERTEX
8
GEAR_1
10
21.080684
20
-13.535362
0
VERTEX
8
GEAR_1
10
20.985855
20
-13.523475
0
VERTEX
8
GEAR_1
10
20.891463
20
-13.510788
0
VERTEX
8
GEAR_1
10
20.797515
20
-13.497294
0
VERTEX
8
GEAR_1
10
20.704021
20
-13.482985
0
VERTEX
8
GEAR_1
10
20.610990
20
-13.467856
0
VERTEX
8
GEAR_1
10
20.518432
20
-13.451897
0
VERTEX
8
GEAR_1
10
20.426357
20
-13.435099
0
VERTEX
8
GEAR_1
10
20.334777
20
-13.417454
0
VERTEX
8
GEAR_1
10
20.243702
20
-13.398949
0
VERTEX
8
GEAR_1
10
20.153145
20
-13.379574
0
VERTEX
8
GEAR_1
10
20.063119
20
-13.359315
0
VERTEX
8
GEAR_1
10
19.973639
20
-13.338158
0
VERTEX
8
GEAR_1
10
19.884719
20
-13.316087
0
VERTEX
8
GEAR_1
10
19.796375
20
-13.293085
0
VERTEX
8
GEAR_1
10
19.708626
20
-13.269132
0
VERTEX
8
GEAR_1
10
19.621492
20
-13.244205
0
VERTEX
8
GEAR_1
10
19.534993
20
-13.218278
0
VERTEX
8
GEAR_1
10
19.449154
20
-13.191324
0
VERTEX
8
GEAR_1
10
19.364003
20
-13.163308
0
VERTEX
8
GEAR_1
10
19.279570
20
-13.134191
0
VERTEX
8
GEAR_1
10
19.195892
20
-13.103926
0
VERTEX
8
GEAR_1
10
19.113011
20
-13.072458
0
VERTEX
8
GEAR_1
10
19.030979
20
-13.039719
0
VERTEX
8
GEAR_1
10
18.949859
20
-13.005621
0
VERTEX
8
GEAR_1
10
18.869734
20
-12.970052
0
VERTEX
8
GEAR_1
10
18.790717
20
-12.932854
0
VERTEX
8
GEAR_1
10
18.712974
20
-12.893791
0
VERTEX
8
GEAR_1
10
18.636796
20
-12.852449
0
VERTEX
8
GEAR_1
10
18.562999
20
-12.807648
0
VERTEX
8
GEAR_1
10
18.346397
20
-12.658202
0
VERTEX
8
GEAR_1
10
18.129794
20
-12.508756
0
VERTEX
8
GEAR_1
10
17.913191
20
-12.359309
0
VERTEX
8
GEAR_1
10
17.696588
20
-12.209863
0
VERTEX
8
GEAR_1
10
18.196518
20
-11.451494
0
VERTEX
8
GEAR_1
10
18.663970
20
-10.672686
0
VERTEX
8
GEAR_1
10
19.098109
20
-9.874829
0
VERTEX
8
GEAR_1
10
19.498160
20
-9.059346
0
VERTEX
8
GEAR_1
10
19.863410
20
-8.227694
0
VERTEX
8
GEAR_1
10
20.193206
20
-7.381356
0
VERTEX
8
GEAR_1
10
20.486961
20
-6.521844
0
VERTEX
8
GEAR_1
10
20.744148
20
-5.650691
0
VERTEX
8
GEAR_1
10
20.964311
20
-4.769452
0
VERTEX
8
GEAR_1
10
21.147055
20
-3.879701
0
VERTEX
8
GEAR_1
10
21.405890
20
-3.927187
0
VERTEX
8
GEAR_1
10
21.664726
20
-3.974674
0
VERTEX
8
GEAR_1
10
21.923562
20
-4.022161
0
VERTEX
8
GEAR_1
10
22.182398
20
-4.069648
0
VERTEX
8
GEAR_1
10
22.266258
20
-4.090151
0
VERTEX
8
GEAR_1
10
22.349358
20
-4.114784
0
VERTEX
8
GEAR_1
10
22.431952
20
-4.142135
0
VERTEX
8
GEAR_1
10
22.514129
20
-4.171705
0
VERTEX
8
GEAR_1
10
22.595937
20
-4.203211
0
VERTEX
8
GEAR_1
10
22.677408
20
-4.236460
0
VERTEX
8
GEAR_1
10
22.758563
20
-4.271316
0
VERTEX
8
GEAR_1
10
22.839420
20
-4.307670
0
VERTEX
8
GEAR_1
10
22.919990
20
-4.345439
0
VERTEX
8
GEAR_1
10
23.000282
20
-4.384554
0
VERTEX
8
GEAR_1
10
23.080303
20
-4.424954
0
VERTEX
8
GEAR_1
10
23.160060
20
-4.466592
0
VERTEX
8
GEAR_1
10
23.239557
20
-4.509423
0
VERTEX
8
GEAR_1
10
23.318797
20
-4.553410
0
VERTEX
8
GEAR_1
10
23.397782
20
-4.598520
0
VERTEX
8
GEAR_1
10
23.476515
20
-4.644724
0
VERTEX
8
GEAR_1
10
23.554997
20
-4.691994
0
VERTEX
8
GEAR_1
10
23.633230
20
-4.740306
0
VERTEX
8
GEAR_1
10
23.711213
20
-4.789638
0
VERTEX
8
GEAR_1
10
23.788947
20
-4.839971
0
VERTEX
8
GEAR_1
10
23.866431
20
-4.891286
0
VERTEX
8
GEAR_1
10
23.943666
20
-4.943566
0
VERTEX
8
GEAR_1
10
24.020650
20
-4.996795
0
VERTEX
8
GEAR_1
10
24.097383
20
-5.050959
0
VERTEX
8
GEAR_1
10
24.173864
20
-5.106043
0
VERTEX
8
GEAR_1
10
24.250092
20
-5.162036
0
VERTEX
8
GEAR_1
10
24.326065
20
-5.218925
0
VERTEX
8
GEAR_1
10
24.401782
20
-5.276700
0
VERTEX
8
GEAR_1
10
24.477241
20
-5.335348
0
VERTEX
8
GEAR_1
10
24.552441
20
-5.394861
0
VERTEX
8
GEAR_1
10
24.627379
20
-5.455230
0
VERTEX
8
GEAR_1
10
24.702055
20
-5.516444
0
VERTEX
8
GEAR_1
10
24.776465
20
-5.578495
0
VERTEX
8
GEAR_1
10
24.850608
20
-5.641376
0
VERTEX
8
GEAR_1
10
24.924482
20
-5.705079
0
VERTEX
8
GEAR_1
10
24.998085
20
-5.769595
0
VERTEX
8
GEAR_1
10
25.071414
20
-5.834919
0
VERTEX
8
GEAR_1
10
25.144467
20
-5.901043
0
VERTEX
8
GEAR_1
10
25.217242
20
-5.967960
0
VERTEX
8
GEAR_1
10
25.289736
20
-6.035666
0
VERTEX
8
GEAR_1
10
25.247610
20
-6.209522
0
VERTEX
8
GEAR_1
10
25.204290
20
-6.383085
0
VERTEX
8
GEAR_1
10
25.159776
20
-6.556345
0
VERTEX
8
GEAR_1
10
25.114071
20
-6.729295
0
VERTEX
8
GEAR_1
10
25.067178
20
-6.901927
0
VERTEX
8
GEAR_1
10
25.019098
20
-7.074231
0
VERTEX
8
GEAR_1
10
24.969833
20
-7.246201
0
VERTEX
8
GEAR_1
10
24.919386
20
-7.417828
0
VERTEX
8
GEAR_1
10
24.822752
20
-7.440216
0
VERTEX
8
GEAR_1
10
24.726269
20
-7.461781
0
VERTEX
8
GEAR_1
10
24.629941
20
-7.482519
0
VERTEX
8
GEAR_1
10
24.533774
20
-7.502427
0
VERTEX
8
GEAR_1
10
24.437774
20
-7.521498
0
VERTEX
8
GEAR_1
10
24.341946
20
-7.539729
0
VERTEX
8
GEAR_1
10
24.246296
20
-7.557114
0
VERTEX
8
GEAR_1
10
24.150829
20
-7.573647
0
VERTEX
8
GEAR_1
10
24.055551
20
-7.589322
0
VERTEX
8
GEAR_1
10
23.960468
20
-7.604133
0
VERTEX
8
GEAR_1
10
23.865587
20
-7.618073
0
VERTEX
8
GEAR_1
10
23.770913
20
-7.631135
0
VERTEX
8
GEAR_1
10
23.676453
20
-7.643311
0
VERTEX
8
GEAR_1
10
23.582214
20
-7.654591
0
VERTEX
8
GEAR_1
10
23.488202
20
-7.664969
0
VERTEX
8
GEAR_1
10
23.394425
20
-7.674433
0
VERTEX
8
GEAR_1
10
23.300891
20
-7.682974
0
VERTEX
8
GEAR_1
10
23.207606
20
-7.690579
0
VERTEX
8
GEAR_1
10
23.114579
20
-7.697237
0
VERTEX
8
GEAR_1
10
23.021818
20
-7.702935
0
VERTEX
8
GEAR_1
10
22.929332
20
-7.707658
0
VERTEX
8
GEAR_1
10
22.837130
20
-7.711390
0
VERTEX
8
GEAR_1
10
22.745223
20
-7.714113
0
VERTEX
8
GEAR_1
10
22.653620
20
-7.715809
0
VERTEX
8
GEAR_1
10
22.562334
20
-7.716455
0
VERTEX
8
GEAR_1
10
22.471375
20
-7.716029
0
VERTEX
8
GEAR_1
10
22.380758
20
-7.714504
0
VERTEX
8
GEAR_1
10
22.290496
20
-7.711848
0
VERTEX
8
GEAR_1
10
22.200606
20
-7.708029
0
VERTEX
8
GEAR_1
10
22.111105
20
-7.703006
0
VERTEX
8
GEAR_1
10
22.022013
20
-7.696734
0
VERTEX
8
GEAR_1
10
21.933353
20
-7.689158
0
VERTEX
8
GEAR_1
10
21.845152
20
-7.680214
0
VERTEX
8
GEAR_1
10
21.757441
20
-7.669822
0
VERTEX
8
GEAR_1
10
21.670261
20
-7.657881
0
VERTEX
8
GEAR_1
10
21.583660
20
-7.644262
0
VERTEX
8
GEAR_1
10
21.497708
20
-7.628782
0
VERTEX
8
GEAR_1
10
21.412504
20
-7.611172
0
VERTEX
8
GEAR_1
10
21.328221
20
-7.590955
0
VERTEX
8
GEAR_1
10
21.245344
20
-7.566781
0
VERTEX
8
GEAR_1
10
20.997442
20
-7.478487
0
VERTEX
8
GEAR_1
10
20.749540
20
-7.390194
0
VERTEX
8
GEAR_1
10
20.501639
20
-7.301901
0
VERTEX
8
GEAR_1
10
20.253737
20
-7.213608
0
VERTEX
8
GEAR_1
10
20.540352
20
-6.351689
0
VERTEX
8
GEAR_1
10
20.790305
20
-5.478432
0
VERTEX
8
GEAR_1
10
21.003150
20
-4.595398
0
VERTEX
8
GEAR_1
10
21.178508
20
-3.704161
0
VERTEX
8
GEAR_1
10
21.316065
20
-2.806313
0
VERTEX
8
GEAR_1
10
21.415575
20
-1.903456
0
VERTEX
8
GEAR_1
10
21.476862
20
-0.997202
0
VERTEX
8
GEAR_1
10
21.499815
20
-0.089168
0
VERTEX
8
GEAR_1
10
21.484394
20
0.819026
0
VERTEX
8
GEAR_1
10
21.430627
20
1.725757
0
SEQEND
8
GEAR_1
0
CIRCLE
8
BORE
10
0.000000
20
0.000000
40
4.000000
0
CIRCLE
8
BASE_CIRCLE
10
0.000000
20
0.000000
40
22.552623
0
ENDSEC
0
EOF